<svg id="Layer_2" data-name="Layer 2" xmlns="http://www.w3.org/2000/svg" viewBox="0 0 385.5 248.39"><defs><style>.cls-1{fill:#fff;stroke:#000;stroke-miterlimit:10;fill-rule:evenodd;}</style></defs><path class="cls-1" d="M359.14,225.51a33.17,33.17,0,0,0-9.23-16.87c.11-1.21.19-2.42.19-3.65,0-30.93-36.42-56-81.34-56a114.08,114.08,0,0,0-29.48,3.81A177.39,177.39,0,0,0,201,149a203,203,0,0,0-22.19,1.18,201.52,201.52,0,0,0-48-5.66C62.68,144.5,7.5,176.6,7.5,216.19c0,16.49,9.59,31.66,25.67,43.78a62.7,62.7,0,0,0-1,11.11,61.22,61.22,0,0,0,2.7,18.14,34.58,34.58,0,0,0-2.7,13.23c0,14.08,8.87,27,23.67,37.19l-30,51.8,86.15-31.59a189.84,189.84,0,0,0,27.42,2,185.08,185.08,0,0,0,40-4.29,216.81,216.81,0,0,0,30.23,2.05c39.27,0,71.83-9.79,77.86-22.6,2.37.12,4.76.19,7.17.19,53.77,0,97.36-28.58,97.36-63.85C392,254.29,379.28,237.21,359.14,225.51Z" transform="translate(-7 -144)"/></svg>