<svg id="Layer_2" data-name="Layer 2" xmlns="http://www.w3.org/2000/svg" viewBox="0 0 332.33 327"><defs><style>.cls-1{fill:#845f2d;}.cls-2,.cls-5{fill:#f7bf31;}.cls-3{fill:#fff;}.cls-4{fill:#050303;}.cls-5{stroke:#000;stroke-miterlimit:10;}</style></defs><circle class="cls-1" cx="56.85" cy="56.85" r="56.85"/><circle class="cls-2" cx="57.47" cy="53.72" r="41.23"/><circle class="cls-1" cx="272.99" cy="61.84" r="56.85"/><circle class="cls-2" cx="273.61" cy="58.72" r="41.23"/><path class="cls-1" d="M372.68,235.08c0,91.77-75,118.36-166.75,118.36S40.35,326.85,40.35,235.08a166.17,166.17,0,1,1,332.33,0Z" transform="translate(-40.35 -26.44)"/><path class="cls-2" d="M272.17,255.69c-1.2,5.66-3.77,7.49-33.15,36.19-22.55,22-25.47,29.51-33.92,29.4-9.39-.11-12.51-8.51-33.91-30.91-25-26.17-31.06-25.47-33.15-34.68-5.4-23.77,26.42-65.59,67.06-65.59C247,190.1,277.26,231.73,272.17,255.69Z" transform="translate(-40.35 -26.44)"/><circle class="cls-3" cx="110.57" cy="118.06" r="25.11"/><path d="M150.91,119.89A24.61,24.61,0,1,1,126.3,144.5a24.64,24.64,0,0,1,24.61-24.61m0-1a25.61,25.61,0,1,0,25.62,25.61,25.62,25.62,0,0,0-25.62-25.61Z" transform="translate(-40.35 -26.44)"/><circle cx="110.08" cy="117.57" r="18.71"/><path d="M150.42,125.8A18.21,18.21,0,1,1,132.21,144a18.23,18.23,0,0,1,18.21-18.21m0-1A19.21,19.21,0,1,0,169.63,144a19.21,19.21,0,0,0-19.21-19.21Z" transform="translate(-40.35 -26.44)"/><circle class="cls-3" cx="114.59" cy="112.24" r="8.45"/><path d="M154.94,130.72a8,8,0,1,1-7.95,7.95,8,8,0,0,1,7.95-7.95m0-1a9,9,0,1,0,8.95,8.95,9,9,0,0,0-8.95-8.95Z" transform="translate(-40.35 -26.44)"/><circle class="cls-3" cx="103.67" cy="124.96" r="4.43"/><path d="M144,147.47a3.93,3.93,0,1,1-3.93,3.93,3.93,3.93,0,0,1,3.93-3.93m0-1a4.93,4.93,0,1,0,4.92,4.93,4.93,4.93,0,0,0-4.92-4.93Z" transform="translate(-40.35 -26.44)"/><path class="cls-4" d="M206.27,255.36a22.05,22.05,0,0,1-2.31-.12c-9.14-1-17-7.43-20.68-13.43-2.15-3.48-2.9-6.77-2.05-9,1.86-4.91,11.44-5.95,19.15-5.95,3.12,0,5.77.17,7.2.26,18.89,1.2,23.77,5.24,24.54,8.41.53,2.21-.58,5.27-3.05,8.4C224.59,249.6,215.79,255.36,206.27,255.36Z" transform="translate(-40.35 -26.44)"/><path d="M200.38,226.33v1c3.1,0,5.75.17,7.17.26,18.58,1.18,23.35,5,24.08,8,.5,2-.58,5-2.95,8-4.41,5.61-13.05,11.27-22.41,11.27a21.11,21.11,0,0,1-2.26-.12c-9-.93-16.66-7.3-20.31-13.2-2.07-3.34-2.79-6.47-2-8.58,1.37-3.63,8-5.63,18.68-5.63v-1m0,0c-7.49,0-17.61,1-19.61,6.28-2.67,7.07,9.12,21.67,23.14,23.13a23.31,23.31,0,0,0,2.36.12c14.5,0,28-13.41,26.33-20.48-1.77-7.32-20-8.47-25-8.79-1.42-.09-4.1-.26-7.23-.26Z" transform="translate(-40.35 -26.44)"/><path class="cls-5" d="M167.16,259.8c3.83,6.67,13.2,10.37,22.15,8.95,9.53-1.51,15.88-8.4,15.54-13.2,0-.71-.26-1.62.1-1.72,1.48-.43,6.05,15,15.64,16.91,4.47.9,11.32-.86,22.15-10.94" transform="translate(-40.35 -26.44)"/><path d="M220,241.34a1.5,1.5,0,0,0,0-3,1.5,1.5,0,0,0,0,3Z" transform="translate(-40.35 -26.44)"/><path d="M200.82,240.06a1.5,1.5,0,0,0,0-3,1.5,1.5,0,0,0,0,3Z" transform="translate(-40.35 -26.44)"/><path class="cls-3" d="M252.79,171.57a25.12,25.12,0,1,1,25.11-25.12A25.14,25.14,0,0,1,252.79,171.57Z" transform="translate(-40.35 -26.44)"/><path d="M252.79,121.84a24.62,24.62,0,1,1-24.61,24.61,24.64,24.64,0,0,1,24.61-24.61m0-1a25.62,25.62,0,1,0,25.61,25.61,25.62,25.62,0,0,0-25.61-25.61Z" transform="translate(-40.35 -26.44)"/><circle cx="211.95" cy="119.53" r="18.71"/><path d="M252.3,127.75A18.21,18.21,0,1,1,234.09,146a18.23,18.23,0,0,1,18.21-18.21m0-1A19.21,19.21,0,1,0,271.51,146a19.21,19.21,0,0,0-19.21-19.21Z" transform="translate(-40.35 -26.44)"/><circle class="cls-3" cx="216.47" cy="114.19" r="8.45"/><path d="M256.81,132.68a7.95,7.95,0,1,1-7.95,7.95,8,8,0,0,1,7.95-7.95m0-1a8.95,8.95,0,1,0,8.95,8.95,9,9,0,0,0-8.95-8.95Z" transform="translate(-40.35 -26.44)"/><path class="cls-3" d="M245.89,157.78a4.43,4.43,0,1,1,4.43-4.43A4.43,4.43,0,0,1,245.89,157.78Z" transform="translate(-40.35 -26.44)"/><path d="M245.89,149.42a3.93,3.93,0,1,1-3.92,3.93,3.94,3.94,0,0,1,3.92-3.93m0-1a4.93,4.93,0,1,0,4.93,4.93,4.93,4.93,0,0,0-4.93-4.93Z" transform="translate(-40.35 -26.44)"/></svg>