<svg id="wzgorze" xmlns="http://www.w3.org/2000/svg" viewBox="0 0 2225 520.36"><defs><style>.cls-1{fill:#083030;}</style></defs><path class="cls-1" d="M-63.55,928.1c93.4-94.5,178.78-125.26,245-133.27,108-13.06,156.68,35.35,330,64,142.42,23.55,134.66-5,303.52,12.59,232.47,24.19,257.82,79.36,445.9,85,190,5.7,169.9-50.42,304.62-30.44,210.73,31.26,322.32,177.85,455.83,125.93,39.33-15.29,72-44.47,98.23-30.43,37.14,19.86,25.26,106.76,22.07,130.13,0,0-8,58.31-30.9,101.79-65.64,124.44-2001,17-2189.75,6.3" transform="translate(79 -792.64)"/></svg>