<svg width="800" height="600" xmlns="http://www.w3.org/2000/svg">
 <!-- Created with Method Draw - http://github.com/duopixel/Method-Draw/ -->

 <g>
  <title>background</title>
  <rect fill="#fff" id="canvas_background" height="602" width="802" y="-1" x="-1"/>
  <g display="none" overflow="visible" y="0" x="0" height="100%" width="100%" id="canvasGrid">
   <rect fill="url(#gridpattern)" stroke-width="0" y="0" x="0" height="100%" width="100%"/>
  </g>
 </g>
 <g>
  <title>Layer 1</title>
  <defs>
   <style>.cls-1{fill:#083030;}</style>
  </defs>
  <g id="svg_6">
   <path id="svg_5" d="m-1.25029,414.91232c34.67342,-54.62319 66.36952,-72.40318 90.95275,-77.03314c40.09346,-7.54898 58.16521,20.43312 122.50779,36.99348c52.87139,13.61245 49.9906,-2.89012 112.67747,7.27731c86.30117,13.98238 95.712,45.87192 165.53401,49.13197c70.53479,3.29473 63.07295,-29.14393 113.08583,-17.59502c78.23051,18.069 119.6567,102.80142 169.22038,72.79045c14.6007,-8.83797 26.72897,-25.70469 36.46649,-17.58924c13.78769,11.47954 9.37741,61.70975 8.19317,75.21815c0,0 -2.96989,33.70453 -11.47118,58.83698c-24.36791,71.9292 -742.8427,9.82639 -812.91344,3.64155" class="cls-1"/>
  </g>
 </g>
</svg>