<svg id="Layer_8" data-name="Layer 8" xmlns="http://www.w3.org/2000/svg" viewBox="0 0 730.33 482.69"><defs><style>.cls-1{fill:#207a44;}</style></defs><path class="cls-1" d="M888.6,969.48s4-52.81,3.37-63.16-.63-30-.63-30L890,849.82s-1.14-14.94-.39-18.49,1.4-12.84,1.4-12.84.7-25.51.58-31.29,1.29-24,1.29-24l.8-14.72s.25-3.1.08-11.18c-.1-4.91-.5-35.44,1.23-32.12s2.65,39,2.65,39a48.32,48.32,0,0,1,.43,10.37c-.27,7-.56,13.35-.56,13.35l.35,21.08L896,821.51,896,838.88l.78,37s2,36.84,1.69,40.34,2.67,54.33,2.67,54.33S890.61,972.33,888.6,969.48Z" transform="translate(-360.27 -583.03)"/><path class="cls-1" d="M890.27,971.1s3.71-48.38,3.53-56.84l-3.23-74.54L892,826.5l.79-41.71s.17-17.74,1-19.36,1.49-21.73,1.41-24.82c0,0-.12-19.26.51-15.45s.81,25.36.62,29.23-.26,13.92-.2,17,.76,10,.3,13.86-2.47,41.09-2.07,46.46.18,21.57.18,21.57,1.88,50,2,53.81,3,59.45,3.64,64-.89.55-4.72,2.42S890.27,971.1,890.27,971.1Z" transform="translate(-360.27 -583.03)"/><path class="cls-1" d="M936.08,843.42l-.89-2.57c4.09.59-2.84-8.66-2.84-8.66-2.83-2.83-2.23-3.23-3.18-4.33-2.46-2.89-6.66-8.26-5.18-5.74-.86-1.46-4.34-2.21-4.34-2.21s-2,1.24-2.1-1.06a24.9,24.9,0,0,0-.94-5.33l-1.93-1.38a32.9,32.9,0,0,0-.34-7.17,4.75,4.75,0,0,1,2.56,2.75c2.63,6.71,3.35.86.74-4.71l5.53,6.47-.1-4.63,5.15,7.64,5.49,4.15a23.73,23.73,0,0,0-4.32-7.72c-3.42-4.33-8.95-10.78-8.95-10.78s-8.78-2.69-10.13-7.2a45.57,45.57,0,0,0-1.87-5c4.23,2.88,8.59,5.34,8.59,5.34l-5.66-6.45-7.26-8.07-3.66-7.26a36.25,36.25,0,0,1-.42-9.74c.11.65.2,1.3.3,1.9a19.3,19.3,0,0,0,.93,6.89l1.65-9a.81.81,0,0,1,0,.11l-.4,4.1a21.7,21.7,0,0,1,1.79,6c.26,1.53.42.27.5-1.77.08.08.14.22.2.23.56.08.31-3.7-.06-7.49v-.3l.78,1,.86,4.17s2.24,15.8,3.13,13.1c0-.07,0-.16.06-.23.65,2.3.74-1.92.69-5.91.55,2.83,1.16,5.27,1.61,4.7s-.12-4.62-.89-9.42l1.71,1.91s1.83,8.33,3,9.76-.76-9.18-.76-9.18l4,5s2.4,8.29,3.5,8.2-1.55-7.59-1.55-7.59l3.45,5.87c2.61,5.93,5.85,1.8,3.6-.31S918.41,767,918.41,767s-4.13-11.2-7-16.35a8.63,8.63,0,0,0-4.07-3.54l-1.45-7c.15,0,.27-.22.38-.5l3.65,5.83,1.61-2.46,1.52,6.05,2.27,2.87-.13-6.16a14.28,14.28,0,0,1,2,4.46,5,5,0,0,0,3.12,3.58l-3-10.54,2,4.45c2.6,5.17,4.22,2.71,4.22,2.71l-1.84-8.31s-5.4-6.47-9-8.48c-2.51-1.36-9.1-14.82-12.94-23.07a57.27,57.27,0,0,0-.69-9.48c1.69,1.48,4.22,4.3,4.25,7.82,0,5.25,6.54,1.48,6.54,1.48l-2.66-7.87s3.36,2,4.63,3.05a4.45,4.45,0,0,0,2.92.91s-5.16-8.81-7.26-9.77c-1.58-.73-8.42-17.34-11.72-25.55L894.3,662l-2-16s-2.16,9.44-1.77,14.8-4.14,20.53-4.14,20.53-5.06,9.69-7.81,10.72-5.38,7.4-5.38,7.4-2.41,4.08-3.81,3.44-2.69,3.31.33,2.28a22.74,22.74,0,0,0,4.39-1.93l-2.9,7.2s1.67-.16,3.53-3.4,3-4.89,3-4.89l-1.47,9.37s2.21-.19,3-3.33a80.14,80.14,0,0,1,2.61-8l1.54,7.57,4.86-1.15a19.24,19.24,0,0,1-.39,3s-9.66,14.73-13,16.56l-7.38,4.51-4.79,9.67s-.19,3.87,2,1.38l2.41-4.08s-3.7,8.81-1.77,7.89,3.75-5.74,3.75-5.74l2.74-1.79-2.3,9.45s2.47-1,3.78-5,2.38-4.84,2.38-4.84l.87,1.47-1.79,7.1s1.61-2.45,2.93-4.89c.5-.89,2.24-1.16,4.25-1.16-1,2.62-2.77,5.23-2.68,9.52-1.15-.63-1.23,2.89-3.11,3.06,0,0-9.58,5.48-11.17,8.69a4.64,4.64,0,0,0-5.28-.31,2.41,2.41,0,0,0,.93,4.57l-3.24,4.13s-6.11,12.12-1.72,10.2l3.18-6.47s-1,5.49,1.44,2.19l3.19-6.46-1.18,10.13a6.3,6.3,0,0,0,2.12-4.81l1.8-6.33s-.28,13.14.47,9.21,1.76-8.64,1.76-8.64.42,6.9,1.78,5.25.71-5.47.71-5.47l2.42-3.29,2.1,7.54s1-5.5,2.07-7.14,2.17-1.74,2.17-1.74l.7,1.76-.21,1.31c-3.14,2-4.2,8.45-4.2,8.45l.08,1.66c-10.88,6.08-16.64,12.39-18.36,14.51-2.7,3.33-6.65,12.93-6.65,12.93s-3.17,7.21-1.24,7,2.67-4.86,2.67-4.86l3-4.12-2,11s3.47-6.49,3.68-9.6a7.05,7.05,0,0,1,2.66-4.85l-.31,11.59a28.64,28.64,0,0,0,1.86-4c1.31-3.21,1.19-8.6,2-8.66s3-1.81,3-1.81l-.68,5.74c-.18,0-.37.15-.58.53-1.86,3.45-3,4.14-3,4.14a43,43,0,0,1-1.77,4.78c1.38-2.78-4.51,2.91-4.81,8.14-.16,2.72-.85-.71-3.54,2.62,0,0-4.08,7.3-.78,6.24l-2.89,7.19s-6,16-3.82,15.76,3.71-8,3.71-8-1,6.26,1.25,6.84,4.25-8.85,4.25-8.85l3.15-8s-2.2,14.08,0,13.1.86-11.63,3.31-13.39,5.15-5.86,5.15-5.86-1.67,12.49-.36,9.29,4.11-15,5.49-15.14-1.29,17.09,4,3.51A101.72,101.72,0,0,0,878,814.76l3.93,1.81c.2,1,.39,1.92.6,2.87l-2.82,3.3s-1.24-.08-1.46,3.32-1.88,3.63-1.88,3.63a18.54,18.54,0,0,0-2.13,4c1-2.89-2.84-1.51-2.49,6.34a17.42,17.42,0,0,0-2.75,2.21,27.29,27.29,0,0,0-1.49,4.75,17.2,17.2,0,0,0-1,3.09,11.32,11.32,0,0,0-6.6,4.63l-5.06,11.51-4.41,7.09s-4.48,15.57,1.82,5.13l3.18-8.67,2.46.74L854,879.14s-4.91,13,2.34,1.34a50.93,50.93,0,0,0,4-9.28l2.75-2.7c-1.5,6-3.38,14.31-2.48,14.82,1.4.82,3.19-9.89,3.19-9.89s-1.28,8.65,0,10.59,2.06-10.48,2.06-10.48l.68-1.15a24.59,24.59,0,0,0,1.36,3.22c0,3.31.17,6.78,1,6.61,1.48-.31,2.2-13.74,3.93-15.08,0,0,.1-.14.15-.19a44.42,44.42,0,0,0,1.49,9.23c-1.07,7.52-2.82,20.69-2.06,21.47,1,1.09,2.26-12.44,2.26-12.44s-.86,10.94.15,13.47,2.57-13.59,2.57-13.59l2-12.72s-1.43,15.37-.33,15,1.19-9.57,2.46-11.21.83-.06.83-.06-.18,12.43.65,7.4c.45-2.84.91-7.82,1.34-11.53l.94,5.5.49-.37c.22,4.41.72,6.21,2.3-5.57,1.26-9.37,1.62-12.29,1.62-12.29l2.62-1.58s.82.83,1.16-2.51c.43,2.16,1,5,1.78,8.82,4,19.3,1.48-5.92,2.38-6s3.22,17.08,4.21,21.6-.65-13.82-.65-13.82,1.91,5.63,3.56,7.8S906.09,892,907.54,893s-.59-19.61-.59-19.61l2.39,11.36s1.72,13.72,3.12,12.44.49-10.45.49-10.45,1.32,11.46,2.75,11.33-3.17-22.85-3.17-22.85L910.35,865c2.17,1,1.66-10.26-.22-14.72-.33-.78-.69-1.1-1-1.15-.16-.92-.27-1.53-.27-1.53s2.84,3.6,5.37,4.91,1.64,12.21,3.86,12.78-.55-13.07-.55-13.07l3.48,7.4s2.41,9,4.61,8.07.95-7,.95-7,1.83,7.55,4,7.36-4.48-15-4.48-15l-3.18-6.65c1.23.18,1.92-.75,2.18-2.11,1.37,3.22,1,11,2.93,11.49,2.24.58-.55-13.06-.55-13.06l3.49,7.41s2.39,9.05,4.6,8.07,1-7,1-7,1.83,7.55,4,7.35S936.08,843.42,936.08,843.42Z" transform="translate(-360.27 -583.03)"/><path class="cls-1" d="M910.62,701.66l-6.73-6.4-6.3-16.47-3.51-6.36-1.87-16.5-.44,11c0,3.66-2.26,8.22-3.15,14.63s-6.74,10.08-6.74,10.08l-5.39,5.46,2.69,1.84,4.5-3.65.44,6.4c0,4.58,4.5-1.84,4.5-1.84,2.24-4.56,2.69.92,2.69.92-.45,3.67,1.34,2.74,1.34,2.74l1.81-9.14a6,6,0,0,0-2.69-7.31l2.11-4.95c1,4.17,2.82,4.95,2.82,4.95l.45,8.23c1.35,3.65,1.79-1.83,1.79-1.83l2.5,5.08a26.35,26.35,0,0,1,4.24,4.07l-.45-4.58Z" transform="translate(-360.27 -583.03)"/><path class="cls-1" d="M893.05,720.84s-5.78,1.87-4.43-2.73c0,0,2.24-6.38-2.7,0,0,0-6.28,11-9.43,11,0,0-7.18,1.84-9,6.41,0,0,3.6.9,5.39-.91s5.39-.92,5.39-.92,1.35,7.31,4.49-2.74l2.69-5.51s3.6,5.51,4.94,0S893.05,720.84,893.05,720.84Z" transform="translate(-360.27 -583.03)"/><path class="cls-1" d="M903.43,721.79s.41,11.38-1.59,8l-3.54-9.39s-5.08,2.63-2.67,4.78l2.66,6.05,2.9,8.87s2,6.65,1.34-1.84,1.36-2.73,1.36-2.73l.89,4.57,1.35-4.57s2.69,7.31,4,3.65c0,0,3.15,9.15,3.15,3.66l4,.46-7.18-8.68S905.23,732.76,903.43,721.79Z" transform="translate(-360.27 -583.03)"/><path class="cls-1" d="M892.61,741.61s-2.94-2.06-4,.78a16.45,16.45,0,0,0-.71,6.36l-2.46,6.37s-2.11,2.83-1.76,5.66l1.41.71a7.74,7.74,0,0,0-.36,5c.71,2.83,1.42-.72,1.42-.72l1.4,5.67a19.92,19.92,0,0,0,.35-4.26c0-2.82,3.87,3.55,3.87,3.55s.72-.79-1.22-4.63,3,1.08,3,1.08-.38-5.67-1.63-5.46,1.28-2.32.22-5.85l.7-7.08Z" transform="translate(-360.27 -583.03)"/><path class="cls-1" d="M903,803.19s-4.48,0-5.39-7.31c0,0-1.34-7.31-1.79-2.76l-2.24-2.72s-.26-12.14,2.79-5.16-.55-2.17-.55-2.17l4,4.57-.45-7.32L903,784.9l3.6,6.42,5.84,4.56s6.29,2.74,7.63,5.49-.89,2.73-.89,2.73l-3.59-1.84s-3.15-3.64-3.15-.89l-.59,8.73a20.24,20.24,0,0,1-3.46-7.84s-3.14-10-3.14-4.56-2.25,0-2.25,0Z" transform="translate(-360.27 -583.03)"/><path class="cls-1" d="M899.39,747.41s-.14,7.17,2.71,10.1,2.68-1.88,2.68-1.88l1.8,4.57,2.24,8.24s.56,2.87.51-3.15l3.59,4.5,2.19,5-.45-7.31,3.59,3.66s-5.78-18.89-10.08-19.95c0,0-1.2,8-4.09,2.11s.25-2.28.25-2.28v-2.75l-1.8.92Z" transform="translate(-360.27 -583.03)"/><path class="cls-1" d="M882.33,782.16s-4.94-4.59-8.08-1.84l-10.77,9.16s-5,3.64-6.74,6.4-2.69,2.74,4.48-.92l5.17,1.41,2-3.25,1,6.83,2.61-8.63,2.69.9s1.79-.9,1.34-5.49Z" transform="translate(-360.27 -583.03)"/><polygon class="cls-1" points="518.91 171.69 520.27 172.6 522.5 163.46 518.91 171.69"/><path class="cls-1" d="M874.25,757.45s-9.43,3.67-11.23,8.23,3,1.86,3,1.86l1.94,3.64h1.8v-5.5s1.79-2.72,4.49-2.72l1.35,3.65,1.79-4.57S883.29,749.33,874.25,757.45Z" transform="translate(-360.27 -583.03)"/><path class="cls-1" d="M914.21,818.74l1.36,3.66s4.48,0,5.83.91,6.28,8.24,6.28,8.24l4,8.24s8.1,11,2.69,6.38a68.12,68.12,0,0,1-9.43-10l.9,6.4-2.69-1.83L921,843.43s-1.16-6.54-4.05-9.14-1.33-.91-1.33-.91L907,830.65s6.94,5.25,9.09,8.56l8.86,17s2.25,10.06-4.48-3.64l-4-2.76.45,4.57s-2.69-9.14-6.74-8.24c0,0-8.07-8.22-9.42-11.88l.45-6.39s.48-4.45-3.13-4.06c0,0,4.92-3.82,7,1.48l6.13,1.22s2-1.25.38-2.33c0,0-2.7-11-6.29-11s2.69,0,5.83,2.73Z" transform="translate(-360.27 -583.03)"/><path class="cls-1" d="M888.62,814.17s-8.53,15.55-9,20.12l-4,5.5,3.14,4.56,5.83-10.06s-2.24-9.15.45-11S890.41,827,888.62,814.17Z" transform="translate(-360.27 -583.03)"/><path class="cls-1" d="M871.11,843.43s7.63-.91,9,2.74-3.6.92-6.74,3.67-3.14,8.25-3.14,11,.68,11.47-1,4.81c0,0-1.68-.25-2.58,2.51s-1.72-3.46-2.24.91c0,0,.13-12.57,3-15.9Z" transform="translate(-360.27 -583.03)"/><path class="cls-1" d="M893.1,830.65s-7.63,8.23-8.53,12.78c0,0-.45,7.34-1.79,7.34s-4.6-2.55-6.34,3.75l-1.29,23.68s1.58.86,2.24-3.65,4.1-5,4.1-5l1.29,3.21.9-6.41,2.63,4.61,1-13.75s.9-3.66,2.24-4.56,1.35-10.08,1.35-10.08S896.25,838.88,893.1,830.65Z" transform="translate(-360.27 -583.03)"/><path class="cls-1" d="M898.05,831.55l10.77,30.19L912,878.2s-2.25,0-4.05-7.32-.44,6.41-2.69-2.74l-3.14-4.59s-3.15-4.57-4-14.62L895.8,848S894.46,818.74,898.05,831.55Z" transform="translate(-360.27 -583.03)"/><path class="cls-1" d="M887.71,791.32a13,13,0,0,0-13.46,6.38c-4.94,8.23-16.17,24.7-16.17,24.7L850.45,838l8.08-9.14-1.68,4.65,4.83-8.32,4.49-.93,3.14-8.22s2.7-2.73,3.59.93c0,0,4,0,2.25-8.25L881,804.1S893.1,800.45,887.71,791.32Z" transform="translate(-360.27 -583.03)"/><path class="cls-1" d="M806.93,1035.19s5.48-62.56,4.62-74.83-.87-35.57-.87-35.57l-1.9-31.36s-1.56-17.7-.54-21.89,1.92-15.21,1.92-15.21,1-30.22.79-37.07,1.77-28.46,1.77-28.46l1.09-17.44s.34-3.68.11-13.25c-.14-5.82-.69-42,1.68-38.05s3.62,46.21,3.62,46.21,1,4,.59,12.28-.76,15.82-.76,15.82l.47,25-2.46,38.55L817,880.47l1.07,43.78s2.76,43.64,2.3,47.78,3.65,64.36,3.65,64.36S809.68,1038.55,806.93,1035.19Z" transform="translate(-360.27 -583.03)"/><path class="cls-1" d="M809.22,1037.11s5.07-57.32,4.83-67.35l-4.43-88.28,1.89-15.67,1.08-49.41s.24-21,1.33-22.93,2-25.74,1.93-29.41c0,0-.17-22.81.7-18.29s1.11,30,.83,34.62-.35,16.49-.26,20.13,1,11.81.4,16.42-3.36,48.67-2.82,55,.24,25.55.24,25.55,2.57,59.2,2.69,63.75,4.1,70.42,5,75.84-1.21.64-6.45,2.86A4.87,4.87,0,0,1,809.22,1037.11Z" transform="translate(-360.27 -583.03)"/><path class="cls-1" d="M871.85,885.85l-1.23-3c5.6.7-3.88-10.26-3.88-10.26-3.87-3.35-3-3.83-4.34-5.12-3.37-3.43-9.11-9.8-7.09-6.81-1.18-1.72-5.93-2.62-5.93-2.62s-2.8,1.47-2.87-1.25a26.26,26.26,0,0,0-1.28-6.31l-2.64-1.64a34.44,34.44,0,0,0-.46-8.5,6.11,6.11,0,0,1,3.49,3.26c3.6,8,4.57,1,1-5.57l7.56,7.66-.13-5.49,7,9.06,7.51,4.91s-1.23-4-5.9-9.14-12.24-12.77-12.24-12.77-12-3.19-13.84-8.53a51.15,51.15,0,0,0-2.57-6c5.79,3.41,11.75,6.32,11.75,6.32l-7.74-7.64-9.93-9.56-5-8.6a36.86,36.86,0,0,1-.57-11.53c.14.77.27,1.53.41,2.25a20,20,0,0,0,1.27,8.16l2.26-10.61s0,.08,0,.13L826,791.5a23.65,23.65,0,0,1,2.43,7.14c.36,1.8.58.31.69-2.1.1.09.19.26.28.28.76.09.42-4.39-.09-8.89v-.35l1.07,1.2,1.18,4.94s3.05,18.71,4.28,15.51c0-.08,0-.18.07-.27.89,2.72,1-2.27,1-7,.74,3.35,1.59,6.25,2.2,5.57s-.17-5.48-1.22-11.16l2.34,2.27s2.51,9.86,4.07,11.56-1-10.87-1-10.87l5.45,5.95s3.27,9.82,4.78,9.71-2.11-9-2.11-9l4.71,7c3.57,7,8,2.13,4.92-.36s-13.29-17.26-13.29-17.26S842,782.06,838.1,776a11.48,11.48,0,0,0-5.57-4.19l-2-8.24c.21,0,.37-.27.52-.6l5,6.91,2.2-2.91,2.07,7.15,3.11,3.41-.18-7.3a16.27,16.27,0,0,1,2.78,5.28,6.43,6.43,0,0,0,4.27,4.24l-4.1-12.48L849,772.5c3.56,6.12,5.76,3.22,5.76,3.22l-2.5-9.86s-7.39-7.66-12.37-10c-3.43-1.61-12.44-17.57-17.69-27.33a59.18,59.18,0,0,0-.94-11.24c2.31,1.76,5.77,5.1,5.8,9.27.07,6.22,9,1.75,9,1.75L832.37,719s4.6,2.4,6.34,3.61a6.74,6.74,0,0,0,4,1.08s-7.06-10.44-9.93-11.57c-2.16-.87-11.51-20.55-16-30.27l-2-10.84L812,652s-3,11.19-2.42,17.54-5.66,24.31-5.66,24.31-6.91,11.49-10.67,12.7-7.36,8.77-7.36,8.77-3.29,4.83-5.2,4.07-3.68,3.92.44,2.71a33.75,33.75,0,0,0,6-2.29l-4,8.53s2.27-.19,4.82-4,4-5.8,4-5.8l-2,11.1a5,5,0,0,0,4.07-4,88.56,88.56,0,0,1,3.58-9.42l2.1,9,6.64-1.37a19.11,19.11,0,0,1-.53,3.54S792.67,744.84,788.17,747l-10.08,5.34-6.55,11.45s-.26,4.6,2.69,1.64l3.3-4.84s-5.06,10.45-2.42,9.35,5.13-6.79,5.13-6.79L784,761l-3.14,11.18s3.38-1.16,5.16-5.86,3.26-5.73,3.26-5.73l1.19,1.73L788,770.77s2.2-2.89,4-5.79c.68-1.05,3.06-1.38,5.81-1.38-1.34,3.11-3.79,6.21-3.66,11.28-1.59-.74-1.7,3.42-4.27,3.62,0,0-13.09,6.49-15.27,10.31a7.06,7.06,0,0,0-7.2-.37c-3.74,2.14-1,5.57,1.26,5.4l-4.43,4.9s-8.35,14.35-2.35,12.08l4.35-7.67s-1.35,6.51,2,2.61l4.36-7.66-1.6,12a7.2,7.2,0,0,0,2.89-5.71l2.46-7.49s-.37,15.55.65,10.9,2.41-10.23,2.41-10.23.57,8.18,2.42,6.22,1-6.48,1-6.48l3.3-3.9,2.87,8.93s1.36-6.51,2.84-8.46a4.59,4.59,0,0,1,3-2l1,2.08-.28,1.55c-4.3,2.31-5.74,10-5.74,10l.1,2c-14.88,7.21-22.74,14.69-25.1,17.2C761,828.58,755.6,840,755.6,840s-4.33,8.53-1.69,8.33,3.65-5.75,3.65-5.75l4-4.89-2.71,13s4.74-7.7,5-11.37,3.64-5.76,3.64-5.76l-.42,13.73a31.91,31.91,0,0,0,2.54-4.76c1.79-3.8,1.63-10.18,2.78-10.26s4.11-2.14,4.11-2.14l-.93,6.8a1.17,1.17,0,0,0-.79.63c-2.55,4.08-4.15,4.9-4.15,4.9a46.09,46.09,0,0,1-2.41,5.66c1.88-3.29-6.16,3.45-6.58,9.65-.21,3.22-1.16-.85-4.84,3.11,0,0-5.57,8.64-1.06,7.38l-3.95,8.52s-8.26,18.91-5.23,18.67,5.07-9.52,5.07-9.52-1.33,7.41,1.71,8.1,5.81-10.49,5.81-10.49l4.32-9.47s-3,16.68,0,15.52,1.17-13.79,4.52-15.87,7-6.93,7-6.93-2.29,14.79-.48,11,5.61-17.78,7.5-17.93-1.77,20.24,5.41,4.16c3.54-7.93,4.71-11,5-12.09l5.37,2.14c.27,1.15.53,2.28.82,3.4l-3.86,3.91s-1.69-.1-2,3.93-2.58,4.3-2.58,4.3a21.36,21.36,0,0,0-2.9,4.72c1.37-3.43-3.88-1.79-3.4,7.5a23.32,23.32,0,0,0-3.76,2.62,29.35,29.35,0,0,0-2,5.64,19.22,19.22,0,0,0-1.42,3.65,15.77,15.77,0,0,0-9,5.49l-6.91,13.62-6,8.41s-6.12,18.44,2.49,6.08l4.34-10.27,3.37.87-5.3,10.24s-6.72,15.45,3.19,1.59a56.15,56.15,0,0,0,5.49-11l3.75-3.2c-2,7.15-4.61,17-3.39,17.56,1.92,1,4.37-11.71,4.37-11.71s-1.76,10.24.06,12.54,2.8-12.42,2.8-12.42l.94-1.36a26.63,26.63,0,0,0,1.86,3.81c0,3.92.23,8,1.3,7.84,2-.37,3-16.28,5.38-17.87.06-.06.14-.17.21-.23.41,4.23,1.06,8.61,2,10.94-1.45,8.91-3.84,24.51-2.81,25.44,1.44,1.29,3.1-14.74,3.1-14.74s-1.18,12.95.19,15.95,3.53-16.1,3.53-16.1l2.74-15.06S792.46,938.36,794,938s1.63-11.33,3.37-13.27,1.13-.08,1.13-.08-.25,14.73.88,8.77c.62-3.37,1.26-9.26,1.84-13.66l1.29,6.51.66-.43c.3,5.22,1,7.35,3.15-6.6,1.72-11.1,2.21-14.56,2.21-14.56l3.59-1.87s1.11,1,1.58-3c.58,2.56,1.36,5.93,2.43,10.44,5.46,22.87,2-7,3.25-7.11s4.41,20.22,5.77,25.58-.9-16.37-.9-16.37,2.61,6.67,4.87,9.24,1.76,21.79,3.75,23-.82-23.24-.82-23.24l3.27,13.46s2.35,16.25,4.27,14.74.67-12.38.67-12.38S842,950.73,844,950.58s-4.33-27.07-4.33-27.07l-3-12.12c3,1.14,2.26-12.15-.3-17.44-.45-.92-.94-1.3-1.45-1.36-.2-1.09-.36-1.81-.36-1.81s3.89,4.26,7.34,5.82,2.24,14.47,5.28,15.13-.75-15.47-.75-15.47l4.76,8.76s3.29,10.72,6.3,9.56,1.3-8.31,1.3-8.31,2.49,8.94,5.52,8.71-6.12-17.81-6.12-17.81l-4.36-7.89c1.69.22,2.64-.88,3-2.49,1.88,3.81,1.44,13,4,13.61,3.06.69-.75-15.46-.75-15.46l4.77,8.77s3.27,10.72,6.29,9.55,1.31-8.31,1.31-8.31,2.49,8.94,5.51,8.71S871.85,885.85,871.85,885.85Z" transform="translate(-360.27 -583.03)"/><path class="cls-1" d="M837,717.93l-9.19-7.58-8.61-19.51-4.81-7.54-2.55-19.55-.61,13c0,4.34-3.08,9.74-4.3,17.34S797.74,706,797.74,706l-7.36,6.47,3.68,2.18,6.15-4.32.6,7.58c0,5.42,6.15-2.18,6.15-2.18,3.06-5.4,3.68,1.09,3.68,1.09-.62,4.35,1.84,3.25,1.84,3.25l2.46-10.83c2.26-5.91-3.68-8.66-3.68-8.66l2.89-5.87c1.33,4.95,3.85,5.87,3.85,5.87l.62,9.75c1.85,4.32,2.45-2.18,2.45-2.18l3.42,6a34.38,34.38,0,0,1,5.79,4.83l-.62-5.43Z" transform="translate(-360.27 -583.03)"/><path class="cls-1" d="M813,740.65s-7.89,2.21-6-3.23c0,0,3.06-7.56-3.68,0,0,0-8.6,13-12.9,13,0,0-9.81,2.17-12.28,7.58,0,0,4.92,1.07,7.36-1.08s7.38-1.08,7.38-1.08,1.84,8.66,6.13-3.25l3.69-6.52s4.91,6.52,6.75,0S813,740.65,813,740.65Z" transform="translate(-360.27 -583.03)"/><path class="cls-1" d="M827.21,741.77s.55,13.49-2.17,9.46l-4.85-11.13s-6.94,3.12-3.64,5.67l3.63,7.16,4,10.51s2.79,7.88,1.83-2.18,1.86-3.24,1.86-3.24l1.21,5.42L830.9,758s3.68,8.67,5.51,4.33c0,0,4.31,10.84,4.31,4.34l5.5.54-9.81-10.29S829.66,754.77,827.21,741.77Z" transform="translate(-360.27 -583.03)"/><path class="cls-1" d="M812.42,765.26s-4-2.45-5.46.92a17,17,0,0,0-1,7.53l-3.37,7.55s-2.88,3.35-2.4,6.71l1.92.84a8.07,8.07,0,0,0-.49,5.86c1,3.36,1.94-.84,1.94-.84l1.92,6.71a20.43,20.43,0,0,0,.48-5c0-3.35,5.29,4.19,5.29,4.19s1-.93-1.67-5.48,4.09,1.29,4.09,1.29-.52-6.72-2.22-6.47,1.74-2.75.29-6.93l1-8.39Z" transform="translate(-360.27 -583.03)"/><path class="cls-1" d="M826.59,838.2s-6.12,0-7.36-8.66c0,0-1.85-8.66-2.45-3.26L813.71,823s-.35-14.37,3.81-6.1-.74-2.58-.74-2.58l5.52,5.42-.61-8.68,4.9,5.44,4.92,7.6,8,5.4s8.6,3.24,10.43,6.5-1.21,3.24-1.21,3.24l-4.91-2.18s-4.31-4.32-4.31-1.06l-.79,10.34A22.76,22.76,0,0,1,834,837.1s-4.3-11.9-4.3-5.4-3.07,0-3.07,0Z" transform="translate(-360.27 -583.03)"/><path class="cls-1" d="M821.69,772.12s-.19,8.5,3.7,12,3.66-2.23,3.66-2.23l2.46,5.42,3.07,9.75s.76,3.4.69-3.72l4.91,5.33,3,6-.62-8.67,4.91,4.34s-7.9-22.37-13.78-23.63c0,0-1.65,9.51-5.59,2.5s.33-2.7.33-2.7v-3.26L826,774.28Z" transform="translate(-360.27 -583.03)"/><path class="cls-1" d="M798.36,813.28s-6.75-5.42-11.05-2.18L772.59,822s-6.77,4.32-9.21,7.58-3.69,3.24,6.13-1.09l7.06,1.67,2.76-3.84,1.35,8.08,3.57-10.22,3.68,1.06s2.45-1.06,1.84-6.5Z" transform="translate(-360.27 -583.03)"/><polygon class="cls-1" points="433.79 197.75 435.64 198.83 438.7 188 433.79 197.75"/><path class="cls-1" d="M787.31,784s-12.89,4.35-15.34,9.76,4.1,2.2,4.1,2.2l2.65,4.31h2.46v-6.51s2.45-3.23,6.13-3.23l1.85,4.32,2.45-5.41S799.67,774.4,787.31,784Z" transform="translate(-360.27 -583.03)"/><path class="cls-1" d="M841.94,856.62,843.8,861s6.12,0,8,1.07,8.59,9.77,8.59,9.77l5.53,9.75s11.06,13,3.67,7.57a86.26,86.26,0,0,1-12.89-11.91l1.23,7.57-3.68-2.16-3.07,3.25s-1.57-7.75-5.53-10.83S843.8,874,843.8,874l-11.67-3.23s9.48,6.21,12.42,10.13L856.67,901s3.08,11.92-6.13-4.31L845,893.46l.61,5.41s-3.68-10.83-9.21-9.75c0,0-11-9.74-12.88-14.08l.62-7.58s.65-5.26-4.29-4.8c0,0,6.73-4.53,9.5,1.76l8.39,1.44s2.67-1.48.51-2.76c0,0-3.68-13-8.6-13s3.69,0,8,3.23Z" transform="translate(-360.27 -583.03)"/><path class="cls-1" d="M807,851.2S795.3,869.62,794.68,875l-5.52,6.51,4.29,5.41,8-11.92s-3.07-10.84.62-13S809.41,866.39,807,851.2Z" transform="translate(-360.27 -583.03)"/><path class="cls-1" d="M783,885.87s10.43-1.09,12.28,3.25-4.92,1.08-9.22,4.34-4.29,9.77-4.29,13,.93,13.59-1.39,5.7c0,0-2.3-.29-3.52,3s-2.36-4.1-3.08,1.09c0,0,.19-14.9,4.08-18.84Z" transform="translate(-360.27 -583.03)"/><path class="cls-1" d="M813.09,870.73s-10.43,9.74-11.66,15.14c0,0-.62,8.69-2.46,8.69s-6.28-3-8.66,4.44l-1.77,28.06s2.16,1,3.07-4.33a6.91,6.91,0,0,1,5.61-6l1.75,3.8,1.24-7.59,3.59,5.46,1.32-16.29s1.22-4.33,3.06-5.4,1.84-12,1.84-12S817.38,880.47,813.09,870.73Z" transform="translate(-360.27 -583.03)"/><path class="cls-1" d="M819.85,871.8l14.73,35.75,4.3,19.51s-3.07,0-5.53-8.68-.61,7.59-3.69-3.25l-4.29-5.43s-4.3-5.41-5.52-17.32l-3.07-1.08S814.94,856.62,819.85,871.8Z" transform="translate(-360.27 -583.03)"/><path class="cls-1" d="M805.72,824.14s-11.66-2.18-18.41,7.56S765.21,861,765.21,861l-10.43,18.42,11-10.83-2.28,5.51,6.59-9.86,6.14-1.1,4.3-9.74s3.68-3.23,4.89,1.1c0,0,5.54,0,3.08-9.76l8-5.42S813.09,835,805.72,824.14Z" transform="translate(-360.27 -583.03)"/><path class="cls-1" d="M703.94,987.24s5.47-62.55,4.61-74.82-.86-35.57-.86-35.57l-1.9-31.36s-1.57-17.7-.54-21.89,1.91-15.22,1.91-15.22,1-30.21.8-37.06,1.77-28.46,1.77-28.46l1.09-17.44s.33-3.68.11-13.25c-.15-5.82-.69-42,1.67-38s3.63,46.21,3.63,46.21,1,4,.58,12.28-.75,15.82-.75,15.82l.47,25L714.07,812,714,832.53l1.06,43.78s2.77,43.64,2.31,47.78S721,988.45,721,988.45,706.69,990.61,703.94,987.24Z" transform="translate(-360.27 -583.03)"/><path class="cls-1" d="M706.23,989.17s5.07-57.32,4.83-67.35l-4.43-88.29,1.89-15.66,1.08-49.41s.24-21,1.33-22.93,2-25.74,1.92-29.41c0,0-.16-22.81.71-18.3s1.1,30,.83,34.62-.35,16.5-.26,20.14,1,11.8.4,16.41-3.37,48.68-2.83,55,.24,25.55.24,25.55,2.58,59.2,2.7,63.74,4.09,70.42,5,75.85-1.21.64-6.45,2.86A4.88,4.88,0,0,1,706.23,989.17Z" transform="translate(-360.27 -583.03)"/><path class="cls-1" d="M768.85,837.91l-1.22-3c5.59.7-3.88-10.26-3.88-10.26-3.87-3.36-3-3.83-4.34-5.13-3.37-3.43-9.11-9.79-7.09-6.8-1.18-1.72-5.93-2.62-5.93-2.62s-2.81,1.47-2.87-1.26a26.46,26.46,0,0,0-1.29-6.3l-2.64-1.64a33.49,33.49,0,0,0-.46-8.5,6.13,6.13,0,0,1,3.5,3.26c3.6,8,4.57,1,1-5.57l7.57,7.65-.13-5.48,7,9.06,7.51,4.91s-1.23-4-5.9-9.14-12.24-12.77-12.24-12.77-12-3.19-13.85-8.53a51.13,51.13,0,0,0-2.56-6c5.79,3.42,11.75,6.33,11.75,6.33l-7.74-7.64-9.93-9.56-5-8.6a36.86,36.86,0,0,1-.57-11.53c.14.76.27,1.53.4,2.25a20.26,20.26,0,0,0,1.27,8.16l2.27-10.61a.93.93,0,0,0,0,.13l-.55,4.86a23.47,23.47,0,0,1,2.44,7.14c.36,1.8.57.31.69-2.1.1.09.19.26.27.27.77.1.43-4.38-.08-8.88v-.35l1.07,1.2,1.17,4.94s3.06,18.71,4.29,15.51c0-.08,0-.18.07-.27.89,2.72,1-2.27,1-7,.74,3.35,1.59,6.25,2.2,5.57s-.17-5.48-1.23-11.16l2.35,2.27s2.5,9.86,4.06,11.56-1-10.88-1-10.88l5.44,6s3.28,9.82,4.78,9.71-2.1-9-2.1-9l4.71,7c3.57,7,8,2.13,4.91-.36s-13.28-17.26-13.28-17.26-5.64-13.27-9.58-19.37a11.55,11.55,0,0,0-5.57-4.2l-2-8.23c.21-.05.37-.27.52-.6l5,6.9,2.19-2.91,2.07,7.16,3.11,3.41-.17-7.3a16.27,16.27,0,0,1,2.78,5.28,6.43,6.43,0,0,0,4.27,4.24l-4.1-12.48,2.78,5.27c3.55,6.12,5.76,3.21,5.76,3.21l-2.51-9.85s-7.38-7.66-12.36-10c-3.44-1.6-12.44-17.56-17.69-27.32a59.07,59.07,0,0,0-.94-11.24c2.31,1.75,5.77,5.1,5.8,9.26.07,6.23,8.95,1.76,8.95,1.76L729.38,671s4.6,2.4,6.33,3.61a6.85,6.85,0,0,0,4,1.08s-7.07-10.44-9.93-11.57c-2.16-.88-11.52-20.55-16-30.27l-2-10.85-2.73-19s-3,11.19-2.42,17.54-5.66,24.31-5.66,24.31-6.91,11.48-10.68,12.7-7.35,8.77-7.35,8.77-3.29,4.83-5.2,4.07-3.69,3.92.44,2.7a32.82,32.82,0,0,0,6-2.29l-4,8.53s2.28-.18,4.82-4,4-5.79,4-5.79l-2,11.1a5,5,0,0,0,4.07-3.95,89.41,89.41,0,0,1,3.57-9.42l2.1,9,6.65-1.37a19.11,19.11,0,0,1-.53,3.54s-13.21,17.45-17.71,19.61l-10.08,5.35-6.55,11.45s-.26,4.59,2.69,1.64l3.3-4.84s-5.06,10.44-2.42,9.35,5.13-6.79,5.13-6.79L681,713.1l-3.14,11.18s3.39-1.16,5.17-5.86,3.26-5.74,3.26-5.74l1.18,1.74L685,722.83s2.2-2.9,4-5.79c.67-1.06,3.05-1.38,5.81-1.38-1.34,3.11-3.79,6.2-3.67,11.28-1.58-.74-1.69,3.42-4.26,3.62,0,0-13.09,6.49-15.27,10.31a7.07,7.07,0,0,0-7.21-.37c-3.73,2.14-1,5.57,1.26,5.4l-4.43,4.9s-8.34,14.35-2.34,12.08l4.35-7.67s-1.36,6.51,2,2.61l4.36-7.66-1.6,12a7.2,7.2,0,0,0,2.89-5.7l2.46-7.49s-.37,15.55.65,10.9,2.41-10.23,2.41-10.23.57,8.18,2.42,6.22,1-6.48,1-6.48l3.31-3.91,2.87,8.94s1.36-6.52,2.83-8.46a4.54,4.54,0,0,1,3-2.05l1,2.08-.29,1.55c-4.29,2.31-5.74,10-5.74,10l.1,2c-14.87,7.21-22.74,14.68-25.09,17.2C658,780.64,652.6,792,652.6,792s-4.32,8.53-1.69,8.33,3.66-5.75,3.66-5.75l4-4.89-2.7,13s4.74-7.69,5-11.37,3.64-5.75,3.64-5.75l-.42,13.73a33.33,33.33,0,0,0,2.54-4.76c1.79-3.8,1.63-10.18,2.78-10.26s4.11-2.14,4.11-2.14l-.94,6.8a1.19,1.19,0,0,0-.78.62c-2.55,4.09-4.15,4.91-4.15,4.91a46.77,46.77,0,0,1-2.41,5.66c1.88-3.29-6.17,3.44-6.58,9.65-.21,3.22-1.16-.85-4.84,3.1,0,0-5.58,8.65-1.06,7.38l-4,8.53s-8.26,18.91-5.23,18.67,5.07-9.53,5.07-9.53-1.34,7.42,1.71,8.1,5.81-10.48,5.81-10.48l4.31-9.47s-3,16.68,0,15.51,1.17-13.78,4.53-15.86,7-6.94,7-6.94-2.29,14.8-.48,11,5.61-17.78,7.5-17.93-1.77,20.24,5.4,4.15c3.54-7.92,4.71-11,5-12.08l5.37,2.14c.27,1.15.53,2.27.82,3.4l-3.86,3.9s-1.7-.09-2,3.94-2.58,4.3-2.58,4.3a21,21,0,0,0-2.9,4.72c1.37-3.43-3.89-1.79-3.41,7.5a23.77,23.77,0,0,0-3.76,2.62,29,29,0,0,0-2,5.63,18.89,18.89,0,0,0-1.42,3.66,15.77,15.77,0,0,0-9,5.49l-6.92,13.62-6,8.41s-6.13,18.44,2.49,6.08l4.34-10.28L662,870l-5.3,10.24s-6.72,15.45,3.19,1.59a56.15,56.15,0,0,0,5.49-11l3.75-3.2c-2,7.15-4.61,17-3.39,17.56,1.92,1,4.37-11.71,4.37-11.71s-1.76,10.24,0,12.54S673,873.59,673,873.59l.93-1.36a27.74,27.74,0,0,0,1.86,3.81c0,3.92.24,8,1.31,7.84,2-.37,3-16.28,5.37-17.87.07-.06.15-.17.22-.23.41,4.23,1.06,8.61,2,10.93-1.45,8.92-3.84,24.52-2.81,25.44,1.44,1.3,3.09-14.73,3.09-14.73s-1.17,13,.2,16,3.53-16.1,3.53-16.1l2.73-15.06S689.47,890.42,691,890s1.63-11.33,3.37-13.28,1.13-.07,1.13-.07-.25,14.73.88,8.77c.62-3.37,1.25-9.26,1.83-13.66l1.29,6.51.67-.43c.3,5.22,1,7.35,3.15-6.6,1.72-11.1,2.21-14.56,2.21-14.56l3.58-1.87s1.11,1,1.59-3c.58,2.56,1.36,5.93,2.43,10.44,5.45,22.87,2-7,3.25-7.11s4.41,20.22,5.76,25.58-.89-16.37-.89-16.37,2.61,6.66,4.86,9.24,1.77,21.79,3.76,23S729,873.4,729,873.4l3.27,13.46s2.35,16.25,4.27,14.74.67-12.38.67-12.38S739,902.79,741,902.64s-4.32-27.07-4.32-27.07l-3-12.12c3,1.14,2.26-12.15-.31-17.44-.44-.92-.93-1.3-1.44-1.36-.21-1.09-.36-1.81-.36-1.81s3.89,4.26,7.34,5.82,2.24,14.46,5.28,15.13-.76-15.47-.76-15.47l4.77,8.76s3.29,10.72,6.29,9.56,1.31-8.32,1.31-8.32,2.49,8.95,5.52,8.72-6.12-17.81-6.12-17.81l-4.36-7.89c1.69.22,2.63-.88,3-2.49,1.88,3.81,1.44,13,4,13.61,3.06.69-.75-15.47-.75-15.47l4.76,8.78s3.28,10.72,6.3,9.55,1.3-8.31,1.3-8.31,2.49,8.94,5.52,8.71S768.85,837.91,768.85,837.91Z" transform="translate(-360.27 -583.03)"/><path class="cls-1" d="M734,670l-9.2-7.58-8.6-19.51-4.81-7.54-2.55-19.55-.61,13c0,4.34-3.08,9.74-4.3,17.34s-9.22,11.93-9.22,11.93l-7.36,6.47,3.68,2.18,6.15-4.32.6,7.58c0,5.42,6.15-2.18,6.15-2.18,3.06-5.4,3.67,1.09,3.67,1.09-.61,4.35,1.84,3.25,1.84,3.25l2.46-10.83c2.27-5.91-3.67-8.67-3.67-8.67l2.88-5.86c1.34,4.94,3.86,5.86,3.86,5.86l.62,9.76c1.85,4.32,2.45-2.18,2.45-2.18l3.42,6a34.49,34.49,0,0,1,5.79,4.82l-.62-5.42Z" transform="translate(-360.27 -583.03)"/><path class="cls-1" d="M710,692.71s-7.9,2.21-6-3.23c0,0,3.06-7.57-3.69,0,0,0-8.59,13-12.89,13,0,0-9.82,2.18-12.28,7.59,0,0,4.92,1.07,7.36-1.08s7.38-1.09,7.38-1.09,1.84,8.67,6.13-3.24l3.69-6.52s4.91,6.52,6.74,0S710,692.71,710,692.71Z" transform="translate(-360.27 -583.03)"/><path class="cls-1" d="M724.22,693.83s.55,13.49-2.18,9.46l-4.84-11.13s-7,3.12-3.64,5.66l3.63,7.17,4,10.5s2.8,7.89,1.84-2.17,1.85-3.24,1.85-3.24l1.21,5.41,1.85-5.41s3.69,8.67,5.52,4.33c0,0,4.31,10.84,4.31,4.34l5.5.54L733.42,709S726.67,706.83,724.22,693.83Z" transform="translate(-360.27 -583.03)"/><path class="cls-1" d="M709.42,717.32s-4-2.45-5.45.91a16.85,16.85,0,0,0-1,7.54l-3.37,7.55s-2.89,3.35-2.41,6.7l1.93.85a8,8,0,0,0-.49,5.86c1,3.35,1.94-.84,1.94-.84l1.91,6.7a19.89,19.89,0,0,0,.49-5c0-3.35,5.29,4.19,5.29,4.19s1-.93-1.67-5.48,4.08,1.29,4.08,1.29-.51-6.72-2.22-6.47,1.74-2.75.3-6.93l1-8.39Z" transform="translate(-360.27 -583.03)"/><path class="cls-1" d="M723.6,790.26s-6.12,0-7.36-8.66c0,0-1.85-8.66-2.46-3.27l-3.07-3.23s-.34-14.37,3.82-6.11-.75-2.57-.75-2.57l5.53,5.42-.62-8.68,4.91,5.44,4.92,7.6,8,5.4s8.6,3.24,10.43,6.5-1.22,3.23-1.22,3.23l-4.91-2.17s-4.3-4.32-4.3-1.06l-.8,10.34a22.67,22.67,0,0,1-4.73-9.28s-4.3-11.9-4.3-5.41-3.07,0-3.07,0Z" transform="translate(-360.27 -583.03)"/><path class="cls-1" d="M718.69,724.18s-.19,8.49,3.71,12,3.65-2.24,3.65-2.24l2.47,5.42,3.07,9.76s.76,3.4.68-3.72l4.92,5.33,3,6-.62-8.67,4.92,4.33S736.57,730,730.7,728.71c0,0-1.65,9.51-5.6,2.49s.34-2.69.34-2.69v-3.26L723,726.33Z" transform="translate(-360.27 -583.03)"/><path class="cls-1" d="M695.37,765.34s-6.75-5.43-11-2.18L669.59,774s-6.76,4.31-9.21,7.58-3.68,3.24,6.13-1.09l7.07,1.67,2.76-3.85,1.35,8.09,3.57-10.22,3.68,1.06s2.45-1.06,1.83-6.51Z" transform="translate(-360.27 -583.03)"/><polygon class="cls-1" points="330.8 149.81 332.65 150.89 335.71 140.06 330.8 149.81"/><path class="cls-1" d="M684.32,736.07s-12.89,4.35-15.34,9.76,4.09,2.2,4.09,2.2l2.65,4.3h2.47v-6.5s2.45-3.23,6.13-3.23l1.84,4.32,2.46-5.41S696.67,726.46,684.32,736.07Z" transform="translate(-360.27 -583.03)"/><path class="cls-1" d="M739,808.68,740.8,813s6.13,0,8,1.07,8.59,9.77,8.59,9.77l5.52,9.75s11.07,13,3.68,7.57a86.86,86.86,0,0,1-12.89-11.91l1.23,7.57-3.68-2.16-3.07,3.25s-1.58-7.75-5.53-10.83S740.8,826,740.8,826l-11.67-3.24s9.49,6.22,12.43,10.14l12.12,20.18s3.07,11.92-6.14-4.31L742,845.52l.61,5.41s-3.68-10.83-9.21-9.75c0,0-11-9.74-12.88-14.08l.61-7.58s.65-5.26-4.28-4.8c0,0,6.73-4.53,9.5,1.76l8.38,1.44s2.68-1.48.52-2.76c0,0-3.68-13-8.6-13s3.68,0,8,3.23Z" transform="translate(-360.27 -583.03)"/><path class="cls-1" d="M704,803.26s-11.67,18.42-12.28,23.84l-5.53,6.51,4.3,5.41,8-11.92s-3.06-10.84.62-13S706.41,818.44,704,803.26Z" transform="translate(-360.27 -583.03)"/><path class="cls-1" d="M680,837.93s10.43-1.09,12.27,3.25-4.91,1.08-9.21,4.34-4.3,9.77-4.3,13,.93,13.59-1.38,5.7c0,0-2.3-.29-3.52,3s-2.36-4.1-3.08,1.09c0,0,.19-14.9,4.08-18.84Z" transform="translate(-360.27 -583.03)"/><path class="cls-1" d="M710.1,822.78s-10.43,9.75-11.67,15.15c0,0-.61,8.69-2.45,8.69s-6.29-3-8.66,4.44l-1.77,28.06s2.16,1,3.07-4.34a6.9,6.9,0,0,1,5.6-6l1.76,3.8,1.24-7.59,3.59,5.46,1.31-16.29s1.23-4.33,3.07-5.4S707,836.84,707,836.84,714.39,832.53,710.1,822.78Z" transform="translate(-360.27 -583.03)"/><path class="cls-1" d="M716.86,823.86l14.73,35.75,4.3,19.51s-3.07,0-5.54-8.68-.6,7.59-3.68-3.25l-4.29-5.44s-4.3-5.4-5.52-17.31l-3.08-1.08S711.94,808.68,716.86,823.86Z" transform="translate(-360.27 -583.03)"/><path class="cls-1" d="M702.73,776.2s-11.66-2.18-18.41,7.55S662.22,813,662.22,813l-10.43,18.42,11-10.83-2.29,5.51,6.59-9.86,6.15-1.1,4.29-9.74s3.69-3.23,4.9,1.1c0,0,5.53,0,3.08-9.77l8-5.42S710.1,787,702.73,776.2Z" transform="translate(-360.27 -583.03)"/><path class="cls-1" d="M590.56,977.76s7.62-64.45,6.43-77.08S595.78,864,595.78,864l-2.65-32.3s-2.17-18.24-.74-22.56,2.66-15.67,2.66-15.67,1.34-31.13,1.11-38.18S598.62,726,598.62,726l1.52-18s.47-3.78.15-13.64c-.2-6-1-43.25,2.33-39.19s5,47.6,5,47.6,1.34,4.15.82,12.65-1.06,16.29-1.06,16.29l.66,25.73-3.43,39.71-.1,21.19,1.48,45.1s3.84,44.95,3.2,49.22S614.33,979,614.33,979,594.38,981.23,590.56,977.76Z" transform="translate(-360.27 -583.03)"/><path class="cls-1" d="M593.74,979.73s7.07-59,6.73-69.36l-6.16-91,2.63-16.14,1.5-50.9s.33-21.65,1.85-23.62,2.83-26.51,2.68-30.29c0,0-.22-23.5,1-18.85s1.54,31,1.16,35.66-.49,17-.36,20.75,1.45,12.16.56,16.9-4.69,50.15-3.94,56.69.34,26.33.34,26.33,3.58,61,3.75,65.66,5.7,72.54,6.94,78.12-1.7.67-9,2.95S593.74,979.73,593.74,979.73Z" transform="translate(-360.27 -583.03)"/><path class="cls-1" d="M680.94,823.93l-1.7-3.14c7.79.73-5.41-10.57-5.41-10.57-5.38-3.45-4.24-3.94-6-5.27-4.69-3.54-12.68-10.09-9.87-7-1.64-1.78-8.25-2.7-8.25-2.7s-3.91,1.51-4-1.3a21.11,21.11,0,0,0-1.79-6.49l-3.68-1.69a25.94,25.94,0,0,0-.64-8.76,8.06,8.06,0,0,1,4.87,3.36c5,8.19,6.37,1.06,1.4-5.74l10.54,7.89-.19-5.65,9.79,9.33,10.46,5.06s-1.71-4.15-8.22-9.42-17-13.15-17-13.15-16.72-3.28-19.28-8.79a46.54,46.54,0,0,0-3.57-6.15c8.06,3.52,16.36,6.51,16.36,6.51l-10.78-7.87-13.82-9.84-7-8.86a28.61,28.61,0,0,1-.79-11.88c.2.79.38,1.58.57,2.32a16,16,0,0,0,1.76,8.4l3.16-10.93a1.21,1.21,0,0,0,.05.14l-.76,5a20.6,20.6,0,0,1,3.4,7.35c.49,1.86.8.32,1-2.16.15.09.27.26.39.28,1.07.09.59-4.52-.12-9.15v-.36l1.49,1.23,1.64,5.09s4.25,19.28,6,16c0-.09.05-.19.1-.28,1.23,2.8,1.41-2.34,1.32-7.21,1,3.45,2.21,6.43,3.07,5.74s-.24-5.65-1.71-11.5l3.26,2.34s3.49,10.15,5.67,11.9-1.43-11.19-1.43-11.19l7.58,6.13s4.56,10.11,6.66,10-2.94-9.26-2.94-9.26l6.56,7.16c5,7.24,11.13,2.2,6.85-.38s-18.51-17.77-18.51-17.77S639.45,717,634,710.73c-1.75-2-4.65-3.4-7.76-4.33l-2.75-8.48a1.12,1.12,0,0,0,.72-.62l7,7.12,3.06-3,2.88,7.37,4.33,3.51-.24-7.52a16.4,16.4,0,0,1,3.87,5.44c1.69,3.66,6,4.37,6,4.37l-5.72-12.85,3.88,5.42c5,6.31,8,3.31,8,3.31l-3.49-10.15s-10.29-7.89-17.22-10.34c-4.78-1.65-17.32-18.09-24.63-28.14,0-1.7-.06-7.46-1.31-11.58,3.22,1.81,8,5.25,8.08,9.54.09,6.41,12.46,1.81,12.46,1.81L626,652s6.4,2.47,8.82,3.72a12.23,12.23,0,0,0,5.56,1.11s-9.83-10.75-13.82-11.92c-3-.9-16-21.17-22.32-31.18l-2.8-11.17L597.62,583s-4.1,11.52-3.37,18.06-7.89,25-7.89,25S576.75,638,571.5,639.22s-10.24,9-10.24,9-4.58,5-7.24,4.2-5.13,4,.62,2.78a58.3,58.3,0,0,0,8.36-2.36l-5.52,8.79s3.18-.19,6.71-4.14,5.62-6,5.62-6L567,663s4.21-.24,5.66-4.07a78.69,78.69,0,0,1,5-9.7l2.92,9.24,9.25-1.4a15.23,15.23,0,0,1-.73,3.64s-18.39,18-24.66,20.21l-14,5.5-9.11,11.8s-.37,4.73,3.74,1.69l4.59-5s-7,10.75-3.37,9.63,7.14-7,7.14-7l5.21-2.19-4.37,11.53a12.2,12.2,0,0,0,7.18-6c2.47-4.85,4.55-5.91,4.55-5.91l1.65,1.79-3.42,8.66s3.07-3,5.59-6c1-1.09,4.26-1.42,8.09-1.42-1.86,3.2-5.27,6.39-5.1,11.61-2.2-.76-2.35,3.53-5.93,3.73,0,0-18.24,6.69-21.26,10.62a12.79,12.79,0,0,0-10-.38c-5.2,2.21-1.4,5.74,1.76,5.57l-6.17,5.05S519.5,749,527.86,746.63l6.06-7.89s-1.89,6.7,2.73,2.68l6.07-7.89-2.23,12.37s4.14-2.11,4-5.88l3.42-7.72s-.52,16,.9,11.23S552.2,733,552.2,733s.8,8.42,3.37,6.4,1.36-6.67,1.36-6.67l4.6-4,4,9.2s1.89-6.71,3.94-8.71a7,7,0,0,1,4.14-2.12l1.33,2.15-.4,1.59c-6,2.38-8,10.32-8,10.32l.14,2C546,750.58,535,758.28,531.75,760.87c-5.14,4.06-12.67,15.78-12.67,15.78s-6,8.79-2.35,8.59,5.09-5.93,5.09-5.93l5.62-5-3.77,13.41s6.6-7.93,7-11.71,5.07-5.93,5.07-5.93l-.58,14.15a33.44,33.44,0,0,0,3.53-4.91c2.49-3.91,2.27-10.49,3.87-10.57s5.73-2.2,5.73-2.2l-1.3,7a1.71,1.71,0,0,0-1.1.64c-3.55,4.22-5.77,5.06-5.77,5.06a41.94,41.94,0,0,1-3.36,5.83c2.62-3.39-8.58,3.55-9.16,9.94-.3,3.32-1.61-.87-6.74,3.2,0,0-7.77,8.9-1.48,7.6l-5.5,8.79s-11.5,19.48-7.28,19.22,7.06-9.81,7.06-9.81-1.86,7.64,2.38,8.35,8.09-10.81,8.09-10.81l6-9.75s-4.2,17.18,0,16,1.63-14.19,6.29-16.34,9.8-7.14,9.8-7.14-3.19,15.23-.68,11.32,7.82-18.31,10.45-18.47-2.47,20.85,7.53,4.28c4.93-8.16,6.56-11.33,6.93-12.45l7.49,2.21c.37,1.18.73,2.34,1.13,3.5l-5.37,4s-2.36-.09-2.77,4.06-3.59,4.43-3.59,4.43a22.21,22.21,0,0,0-4,4.86c1.91-3.54-5.41-1.85-4.74,7.72a37.06,37.06,0,0,0-5.24,2.7,25.76,25.76,0,0,0-2.83,5.81,16.33,16.33,0,0,0-2,3.77A24.38,24.38,0,0,0,536,837.68l-9.63,14L518,860.38s-8.53,19,3.47,6.26l6-10.58,4.69.9-7.38,10.55s-9.36,15.91,4.44,1.64c4.2-4.34,7.64-11.32,7.64-11.32l5.23-3.3c-2.85,7.36-6.42,17.46-4.72,18.09,2.67,1,6.08-12.07,6.08-12.07s-2.45,10.56.08,12.92,3.91-12.79,3.91-12.79l1.3-1.4a25.36,25.36,0,0,0,2.59,3.92c0,4,.32,8.28,1.81,8.08,2.82-.38,4.2-16.77,7.49-18.41.09-.06.19-.17.29-.23.58,4.35,1.48,8.86,2.82,11.26-2,9.18-5.35,25.25-3.91,26.21,2,1.33,4.31-15.19,4.31-15.19s-1.64,13.35.27,16.44,4.91-16.59,4.91-16.59l3.81-15.51s-2.71,18.75-.62,18.34,2.27-11.67,4.69-13.67,1.58-.08,1.58-.08-.36,15.17,1.22,9c.87-3.47,1.75-9.54,2.55-14.07l1.8,6.7.93-.44c.42,5.37,1.38,7.57,4.38-6.8,2.4-11.43,3.08-15,3.08-15l5-1.92s1.55,1,2.21-3.07c.81,2.64,1.89,6.11,3.38,10.76,7.6,23.55,2.82-7.23,4.53-7.33s6.14,20.84,8,26.36-1.25-16.86-1.25-16.86,3.63,6.86,6.77,9.51,2.46,22.44,5.23,23.69-1.14-23.94-1.14-23.94L630,874.35s3.28,16.74,6,15.18.93-12.75.93-12.75,2.52,14,5.23,13.82-6-27.88-6-27.88L632,850.24c4.13,1.17,3.16-12.53-.42-18a2.67,2.67,0,0,0-2-1.4c-.29-1.12-.51-1.87-.51-1.87s5.41,4.39,10.22,6,3.12,14.9,7.36,15.59-1.06-15.94-1.06-15.94l6.63,9s4.58,11,8.77,9.84,1.82-8.57,1.82-8.57,3.47,9.22,7.68,9-8.52-18.34-8.52-18.34l-6.07-8.13c2.36.22,3.67-.91,4.15-2.57,2.62,3.93,2,13.44,5.59,14,4.25.71-1.05-15.93-1.05-15.93l6.63,9s4.57,11,8.77,9.84,1.81-8.56,1.81-8.56,3.47,9.21,7.69,9S680.94,823.93,680.94,823.93Z" transform="translate(-360.27 -583.03)"/><path class="cls-1" d="M632.47,651l-12.81-7.81-12-20.1-6.7-7.76-3.54-20.14-.85,13.39c0,4.47-4.29,10-6,17.86s-12.83,12.29-12.83,12.29l-10.25,6.67,5.12,2.24,8.56-4.45L582,651c0,5.58,8.56-2.24,8.56-2.24,4.26-5.57,5.12,1.12,5.12,1.12-.86,4.48,2.56,3.34,2.56,3.34L601.71,642c3.15-6.09-5.12-8.93-5.12-8.93l4-6c1.85,5.09,5.36,6,5.36,6l.86,10c2.58,4.45,3.41-2.24,3.41-2.24l4.77,6.2a46.78,46.78,0,0,1,8.06,5l-.86-5.6Z" transform="translate(-360.27 -583.03)"/><path class="cls-1" d="M599,674.35s-11,2.28-8.43-3.32c0,0,4.26-7.8-5.13,0,0,0-12,13.4-18,13.4,0,0-13.67,2.24-17.11,7.82,0,0,6.85,1.09,10.26-1.11S570.94,690,570.94,690s2.57,8.92,8.53-3.35l5.14-6.72s6.84,6.72,9.4,0S599,674.35,599,674.35Z" transform="translate(-360.27 -583.03)"/><path class="cls-1" d="M618.8,675.5s.76,13.9-3,9.75L609,673.79s-9.67,3.21-5.07,5.83L609,687l5.52,10.82s3.89,8.13,2.55-2.24,2.58-3.33,2.58-3.33l1.69,5.57,2.58-5.57s5.12,8.93,7.68,4.45c0,0,6,11.17,6,4.48l7.66.56-13.65-10.6S622.21,688.9,618.8,675.5Z" transform="translate(-360.27 -583.03)"/><path class="cls-1" d="M598.2,699.7s-5.59-2.52-7.6.95a13.1,13.1,0,0,0-1.34,7.76l-4.7,7.77s-4,3.46-3.35,6.91l2.68.87a6.45,6.45,0,0,0-.68,6c1.35,3.45,2.7-.87,2.7-.87l2.66,6.91a15.34,15.34,0,0,0,.69-5.19c0-3.44,7.36,4.32,7.36,4.32s1.36-1-2.33-5.64,5.69,1.32,5.69,1.32-.72-6.92-3.09-6.66,2.42-2.83.41-7.14l1.33-8.64Z" transform="translate(-360.27 -583.03)"/><path class="cls-1" d="M617.94,774.84a10.68,10.68,0,0,1-10.26-8.92s-2.57-8.92-3.41-3.36L600,759.23s-.48-14.81,5.32-6.3-1-2.65-1-2.65l7.69,5.59-.86-8.94,6.84,5.59,6.85,7.84,11.1,5.56s12,3.34,14.53,6.69-1.7,3.34-1.7,3.34l-6.83-2.24s-6-4.45-6-1.1l-1.1,10.66s-4.88-4-6.6-9.56c0,0-6-12.26-6-5.57s-4.27,0-4.27,0Z" transform="translate(-360.27 -583.03)"/><path class="cls-1" d="M611.1,706.77s-.26,8.75,5.16,12.33,5.09-2.3,5.09-2.3l3.44,5.58,4.26,10s1.06,3.5,1-3.83l6.84,5.49,4.17,6.15-.86-8.93,6.84,4.46s-11-23-19.19-24.33c0,0-2.29,9.79-7.78,2.57s.47-2.78.47-2.78v-3.36L617.08,709Z" transform="translate(-360.27 -583.03)"/><path class="cls-1" d="M578.63,749.17s-9.4-5.59-15.39-2.24l-20.5,11.18s-9.42,4.45-12.82,7.81-5.13,3.34,8.53-1.12l9.84,1.72,3.84-4,1.88,8.32,5-10.52,5.12,1.09s3.42-1.09,2.56-6.7Z" transform="translate(-360.27 -583.03)"/><polygon class="cls-1" points="212.37 132.66 214.94 133.77 219.2 122.62 212.37 132.66"/><path class="cls-1" d="M563.24,719s-18,4.48-21.36,10.05,5.71,2.27,5.71,2.27l3.68,4.43h3.43v-6.7a13.23,13.23,0,0,1,8.54-3.33l2.57,4.46,3.42-5.58S580.44,709.12,563.24,719Z" transform="translate(-360.27 -583.03)"/><path class="cls-1" d="M639.31,793.82l2.58,4.46s8.53,0,11.1,1.11,12,10.06,12,10.06l7.69,10s15.41,13.4,5.13,7.79a114.17,114.17,0,0,1-18-12.26l1.72,7.79-5.13-2.22-4.27,3.34s-2.19-8-7.7-11.15-2.54-1.12-2.54-1.12l-16.25-3.33s13.21,6.41,17.3,10.45l16.87,20.79s4.29,12.27-8.54-4.45l-7.69-3.36.85,5.57s-5.12-11.16-12.82-10.05c0,0-15.38-10-17.93-14.5l.85-7.8s.9-5.43-6-5c0,0,9.38-4.66,13.23,1.82l11.68,1.48s3.72-1.52.71-2.84c0,0-5.13-13.36-12-13.36s5.13,0,11.11,3.33Z" transform="translate(-360.27 -583.03)"/><path class="cls-1" d="M590.6,788.23s-16.24,19-17.09,24.56l-7.7,6.71,6,5.57,11.11-12.28s-4.27-11.16.86-13.4S594,803.87,590.6,788.23Z" transform="translate(-360.27 -583.03)"/><path class="cls-1" d="M557.26,823.94s14.53-1.12,17.1,3.35-6.84,1.12-12.83,4.48-6,10.05-6,13.39,1.29,14-1.93,5.87a5.23,5.23,0,0,0-4.91,3.06c-1.7,3.34-3.28-4.22-4.28,1.12,0,0,.26-15.35,5.68-19.4Z" transform="translate(-360.27 -583.03)"/><path class="cls-1" d="M599.13,808.34s-14.52,10-16.23,15.6c0,0-.86,9-3.43,9s-8.74-3.12-12.05,4.57L565,866.37s3,1,4.28-4.46,7.8-6.15,7.8-6.15l2.44,3.91,1.73-7.82,5,5.63L588,840.7s1.71-4.47,4.27-5.57,2.56-12.31,2.56-12.31S605.11,818.38,599.13,808.34Z" transform="translate(-360.27 -583.03)"/><path class="cls-1" d="M608.55,809.45l20.5,36.83,6,20.09s-4.27,0-7.7-8.94-.85,7.82-5.13-3.34l-6-5.6s-6-5.57-7.68-17.84l-4.28-1.11S601.71,793.82,608.55,809.45Z" transform="translate(-360.27 -583.03)"/><path class="cls-1" d="M588.88,760.36s-16.24-2.25-25.64,7.78-30.77,30.14-30.77,30.14l-14.52,19,15.37-11.15-3.18,5.67,9.17-10.15,8.56-1.14,6-10s5.13-3.33,6.82,1.13c0,0,7.7,0,4.28-10.06L576.06,776S599.13,771.5,588.88,760.36Z" transform="translate(-360.27 -583.03)"/><path class="cls-1" d="M516.16,996.29s7.62-64.44,6.43-77.07-1.21-36.64-1.21-36.64l-2.65-32.31S516.56,832,518,827.72s2.66-15.67,2.66-15.67,1.34-31.13,1.11-38.18,2.46-29.32,2.46-29.32l1.52-18s.47-3.78.15-13.64c-.2-6-1-43.25,2.33-39.2s5,47.6,5,47.6,1.34,4.16.82,12.65-1.05,16.3-1.05,16.3l.65,25.72-3.43,39.72-.1,21.19,1.48,45.1s3.85,45,3.21,49.22,5.08,66.29,5.08,66.29S520,999.76,516.16,996.29Z" transform="translate(-360.27 -583.03)"/><path class="cls-1" d="M519.35,998.27s7.06-59,6.72-69.37L519.91,838l2.63-16.13,1.5-50.9s.34-21.65,1.85-23.62,2.84-26.51,2.69-30.29c0,0-.23-23.5,1-18.85s1.54,30.94,1.17,35.66-.5,17-.37,20.74,1.45,12.16.56,16.91-4.69,50.14-3.94,56.69.34,26.32.34,26.32,3.58,61,3.75,65.67,5.7,72.54,6.94,78.12-1.7.66-9,3S519.35,998.27,519.35,998.27Z" transform="translate(-360.27 -583.03)"/><path class="cls-1" d="M606.55,842.47l-1.71-3.14c7.79.72-5.4-10.57-5.4-10.57-5.39-3.46-4.24-3.94-6.05-5.28-4.68-3.53-12.68-10.08-9.87-7-1.64-1.77-8.25-2.7-8.25-2.7s-3.91,1.52-4-1.29a21.21,21.21,0,0,0-1.79-6.5l-3.67-1.68a26.44,26.44,0,0,0-.64-8.76A8.07,8.07,0,0,1,570,798.9c5,8.19,6.37,1.06,1.4-5.74L582,801.05l-.19-5.65,9.8,9.33,10.45,5s-1.71-4.14-8.22-9.41-17-13.16-17-13.16-16.72-3.28-19.28-8.78a46.54,46.54,0,0,0-3.57-6.15c8.06,3.51,16.37,6.51,16.37,6.51l-10.79-7.87-13.82-9.84-7-8.87a28.57,28.57,0,0,1-.79-11.87c.2.78.38,1.57.57,2.31a16,16,0,0,0,1.77,8.41l3.15-10.93a.69.69,0,0,0,.05.13l-.75,5a20.81,20.81,0,0,1,3.39,7.35c.5,1.86.8.33,1-2.16.14.1.26.27.38.29,1.07.09.59-4.52-.12-9.15v-.37l1.49,1.23,1.64,5.1s4.25,19.27,6,16c0-.09.06-.19.1-.29,1.24,2.81,1.41-2.33,1.33-7.2,1,3.45,2.2,6.43,3.06,5.74s-.24-5.65-1.71-11.5l3.26,2.33s3.49,10.16,5.67,11.91-1.43-11.2-1.43-11.2l7.58,6.14s4.57,10.11,6.66,10-2.93-9.26-2.93-9.26l6.56,7.16c5,7.24,11.12,2.19,6.84-.38s-18.5-17.77-18.5-17.77-7.85-13.67-13.34-20c-1.75-2-4.64-3.39-7.75-4.32l-2.76-8.49a1.08,1.08,0,0,0,.72-.61l7,7.11,3.06-3,2.88,7.37,4.33,3.51-.24-7.52a16.25,16.25,0,0,1,3.87,5.44c1.69,3.66,6,4.37,6,4.37l-5.72-12.86,3.88,5.43c5,6.31,8,3.31,8,3.31l-3.49-10.15S569,711,562.05,708.52c-4.78-1.66-17.31-18.09-24.63-28.15,0-1.69-.06-7.45-1.31-11.57,3.22,1.8,8,5.25,8.08,9.54.09,6.41,12.46,1.81,12.46,1.81l-5.06-9.6s6.4,2.47,8.81,3.71a12.08,12.08,0,0,0,5.56,1.11s-9.83-10.74-13.82-11.91c-3-.9-16-21.17-22.32-31.19L527,621.11l-3.8-19.55s-4.1,11.53-3.37,18.06-7.88,25-7.88,25-9.62,11.83-14.86,13.09-10.25,9-10.25,9-4.57,5-7.24,4.19-5.12,4,.62,2.79a57.74,57.74,0,0,0,8.36-2.36l-5.52,8.78s3.18-.19,6.72-4.14,5.61-6,5.61-6l-2.79,11.44s4.21-.24,5.66-4.07a77.9,77.9,0,0,1,5-9.7l2.92,9.24,9.26-1.4a15.45,15.45,0,0,1-.74,3.64s-18.39,18-24.66,20.21l-14,5.5-9.11,11.8s-.37,4.73,3.74,1.69l4.59-5s-7,10.76-3.37,9.63,7.15-7,7.15-7l5.2-2.19-4.37,11.52a12.16,12.16,0,0,0,7.18-6c2.48-4.84,4.55-5.9,4.55-5.9l1.65,1.79-3.41,8.66s3.06-3,5.58-6c.95-1.08,4.26-1.42,8.09-1.42-1.86,3.21-5.27,6.39-5.1,11.62-2.2-.76-2.35,3.53-5.93,3.73,0,0-18.23,6.69-21.26,10.62a12.79,12.79,0,0,0-10-.38c-5.2,2.21-1.4,5.74,1.76,5.57l-6.17,5s-11.63,14.78-3.27,12.44l6.06-7.89s-1.89,6.7,2.73,2.68l6.07-7.89-2.23,12.37s4.14-2.12,4-5.88l3.43-7.72s-.53,16,.9,11.23,3.35-10.54,3.35-10.54.8,8.43,3.37,6.41,1.36-6.67,1.36-6.67l4.6-4,4,9.21s1.89-6.71,3.95-8.72a7,7,0,0,1,4.13-2.11l1.33,2.14-.4,1.6c-6,2.38-8,10.31-8,10.31l.14,2c-20.71,7.43-31.66,15.13-34.94,17.71-5.14,4.07-12.67,15.79-12.67,15.79s-6,8.79-2.35,8.58,5.09-5.93,5.09-5.93l5.62-5-3.77,13.42s6.61-7.93,7-11.71,5.06-5.93,5.06-5.93l-.58,14.14a32.72,32.72,0,0,0,3.53-4.9c2.5-3.91,2.28-10.49,3.87-10.57s5.73-2.21,5.73-2.21l-1.3,7a1.76,1.76,0,0,0-1.1.65c-3.55,4.21-5.77,5.06-5.77,5.06a42.55,42.55,0,0,1-3.36,5.83c2.62-3.4-8.58,3.54-9.16,9.93-.3,3.32-1.61-.87-6.74,3.2,0,0-7.76,8.91-1.48,7.61l-5.5,8.78S428,852.59,432.2,852.34s7.06-9.81,7.06-9.81-1.86,7.63,2.38,8.34,8.09-10.8,8.09-10.8l6-9.76s-4.19,17.19,0,16,1.63-14.2,6.3-16.34,9.79-7.15,9.79-7.15-3.19,15.24-.67,11.33,7.82-18.32,10.45-18.47-2.48,20.85,7.52,4.28c4.93-8.16,6.56-11.33,6.94-12.45l7.48,2.21c.37,1.18.73,2.34,1.13,3.5l-5.37,4s-2.36-.1-2.77,4-3.58,4.43-3.58,4.43a22.19,22.19,0,0,0-4,4.86c1.9-3.53-5.42-1.84-4.75,7.73a36,36,0,0,0-5.24,2.7,25.84,25.84,0,0,0-2.83,5.8,16.53,16.53,0,0,0-2,3.77,24.4,24.4,0,0,0-12.56,5.65l-9.63,14-8.39,8.66s-8.53,19,3.47,6.26l6-10.58,4.69.89-7.38,10.56S441,902,454.82,887.69c4.19-4.34,7.64-11.33,7.64-11.33l5.22-3.29c-2.85,7.36-6.42,17.46-4.72,18.09,2.67,1,6.08-12.07,6.08-12.07s-2.45,10.55.08,12.92S473,879.22,473,879.22l1.3-1.41a25,25,0,0,0,2.59,3.93c0,4,.32,8.28,1.81,8.08,2.82-.38,4.2-16.77,7.49-18.41.09-.06.2-.17.29-.24.58,4.36,1.48,8.87,2.82,11.26-2,9.18-5.35,25.26-3.91,26.21,2,1.33,4.31-15.18,4.31-15.18s-1.64,13.34.27,16.43,4.91-16.58,4.91-16.58l3.81-15.51s-2.71,18.75-.62,18.34,2.27-11.67,4.69-13.67,1.58-.08,1.58-.08-.35,15.17,1.22,9c.87-3.47,1.75-9.54,2.56-14.06l1.79,6.7.93-.44c.42,5.37,1.38,7.57,4.39-6.8,2.39-11.44,3.07-15,3.07-15l5-1.93s1.55,1,2.21-3.06c.81,2.64,1.9,6.11,3.38,10.75,7.6,23.56,2.82-7.22,4.53-7.32s6.14,20.83,8,26.35-1.25-16.86-1.25-16.86,3.64,6.86,6.77,9.51,2.46,22.45,5.23,23.7S551.08,879,551.08,879l4.55,13.86s3.28,16.75,6,15.19.94-12.76.94-12.76,2.51,14,5.22,13.83-6-27.89-6-27.89l-4.15-12.48c4.13,1.17,3.15-12.52-.42-18a2.7,2.7,0,0,0-2-1.4c-.29-1.12-.51-1.87-.51-1.87s5.41,4.39,10.22,6,3.12,14.9,7.36,15.58-1.06-15.94-1.06-15.94l6.63,9s4.59,11,8.77,9.85,1.82-8.57,1.82-8.57,3.47,9.21,7.68,9-8.52-18.35-8.52-18.35L581.46,846c2.36.22,3.67-.92,4.16-2.57,2.61,3.93,2,13.44,5.58,14,4.25.71-1.05-15.93-1.05-15.93l6.64,9s4.56,11,8.76,9.84,1.82-8.57,1.82-8.57,3.46,9.22,7.68,9S606.55,842.47,606.55,842.47Z" transform="translate(-360.27 -583.03)"/><path class="cls-1" d="M558.07,669.48l-12.8-7.8-12-20.1-6.69-7.77L523,613.68l-.85,13.39c0,4.46-4.29,10-6,17.85s-12.83,12.3-12.83,12.3l-10.25,6.66,5.12,2.24,8.56-4.44.84,7.8c0,5.59,8.56-2.24,8.56-2.24,4.27-5.56,5.12,1.12,5.12,1.12-.85,4.48,2.56,3.35,2.56,3.35l3.43-11.16c3.15-6.08-5.12-8.92-5.12-8.92l4-6c1.86,5.09,5.37,6,5.37,6l.86,10c2.57,4.44,3.4-2.24,3.4-2.24l4.77,6.19a47.47,47.47,0,0,1,8.06,5l-.86-5.59Z" transform="translate(-360.27 -583.03)"/><path class="cls-1" d="M524.63,692.89s-11,2.28-8.43-3.33c0,0,4.27-7.79-5.13,0,0,0-12,13.41-17.95,13.41,0,0-13.67,2.24-17.1,7.81,0,0,6.84,1.1,10.25-1.11s10.27-1.12,10.27-1.12,2.57,8.93,8.54-3.34l5.13-6.72s6.84,6.72,9.4,0S524.63,692.89,524.63,692.89Z" transform="translate(-360.27 -583.03)"/><path class="cls-1" d="M544.4,694s.76,13.9-3,9.75l-6.74-11.47s-9.67,3.22-5.08,5.84l5.06,7.38,5.52,10.82s3.89,8.12,2.56-2.24,2.58-3.34,2.58-3.34l1.68,5.58,2.58-5.58s5.12,8.93,7.68,4.46c0,0,6,11.17,6,4.47l7.66.56-13.65-10.6S547.81,707.43,544.4,694Z" transform="translate(-360.27 -583.03)"/><path class="cls-1" d="M523.8,718.24s-5.59-2.53-7.6.94a13.19,13.19,0,0,0-1.34,7.76l-4.7,7.78s-4,3.45-3.35,6.91l2.69.87a6.44,6.44,0,0,0-.69,6c1.35,3.45,2.7-.87,2.7-.87l2.67,6.91a15.62,15.62,0,0,0,.68-5.19c0-3.45,7.36,4.32,7.36,4.32s1.36-1-2.33-5.65,5.69,1.33,5.69,1.33-.72-6.93-3.09-6.67,2.42-2.83.41-7.13l1.33-8.65Z" transform="translate(-360.27 -583.03)"/><path class="cls-1" d="M543.54,793.38a10.69,10.69,0,0,1-10.26-8.93s-2.56-8.92-3.41-3.36l-4.27-3.33s-.49-14.81,5.31-6.29-1-2.65-1-2.65l7.69,5.59-.86-8.95,6.84,5.6,6.85,7.83,11.11,5.56s12,3.35,14.52,6.7-1.69,3.33-1.69,3.33l-6.84-2.24s-6-4.44-6-1.09l-1.11,10.65s-4.87-4-6.6-9.56c0,0-6-12.25-6-5.56s-4.27,0-4.27,0Z" transform="translate(-360.27 -583.03)"/><path class="cls-1" d="M536.7,725.3s-.26,8.76,5.17,12.34,5.08-2.3,5.08-2.3l3.44,5.58L554.65,751s1.07,3.5,1-3.84l6.84,5.49,4.18,6.15-.87-8.92,6.85,4.46s-11-23-19.19-24.34c0,0-2.3,9.8-7.79,2.57s.47-2.77.47-2.77v-3.36l-3.41,1.12Z" transform="translate(-360.27 -583.03)"/><path class="cls-1" d="M504.23,767.71s-9.4-5.59-15.38-2.25l-20.51,11.18s-9.41,4.45-12.82,7.81-5.13,3.35,8.53-1.12l9.84,1.72,3.85-4,1.88,8.33,5-10.53,5.13,1.1s3.41-1.1,2.55-6.71Z" transform="translate(-360.27 -583.03)"/><polygon class="cls-1" points="137.97 151.19 140.54 152.31 144.81 141.16 137.97 151.19"/><path class="cls-1" d="M488.85,737.56s-18,4.48-21.37,10.05,5.71,2.27,5.71,2.27l3.69,4.43h3.42v-6.7a13.24,13.24,0,0,1,8.55-3.33l2.56,4.45,3.42-5.57S506.05,727.65,488.85,737.56Z" transform="translate(-360.27 -583.03)"/><path class="cls-1" d="M564.91,812.35l2.58,4.47s8.53,0,11.1,1.1,12,10.07,12,10.07l7.7,10s15.4,13.4,5.12,7.8a113.42,113.42,0,0,1-18-12.27l1.71,7.8L582,839.14l-4.27,3.34s-2.19-8-7.7-11.15-2.54-1.12-2.54-1.12l-16.25-3.33s13.21,6.41,17.3,10.44l16.88,20.79s4.28,12.27-8.55-4.45l-7.69-3.36.85,5.57s-5.12-11.15-12.82-10c0,0-15.38-10-17.93-14.5l.85-7.81s.9-5.42-6-4.95c0,0,9.38-4.66,13.23,1.81l11.68,1.49s3.72-1.53.71-2.84c0,0-5.13-13.36-12-13.36s5.13,0,11.11,3.33Z" transform="translate(-360.27 -583.03)"/><path class="cls-1" d="M516.2,806.77s-16.24,19-17.09,24.56l-7.7,6.7,6,5.57,11.11-12.27s-4.27-11.17.86-13.41S519.61,822.41,516.2,806.77Z" transform="translate(-360.27 -583.03)"/><path class="cls-1" d="M482.86,842.48s14.53-1.12,17.1,3.35-6.84,1.12-12.83,4.47-6,10.06-6,13.4,1.29,14-1.93,5.86a5.22,5.22,0,0,0-4.9,3.06c-1.71,3.35-3.29-4.22-4.28,1.12,0,0,.26-15.34,5.67-19.4Z" transform="translate(-360.27 -583.03)"/><path class="cls-1" d="M524.73,826.88s-14.52,10-16.23,15.6c0,0-.86,8.95-3.42,8.95S496.33,848.32,493,856l-2.47,28.9s3,1,4.28-4.46,7.8-6.15,7.8-6.15l2.45,3.91,1.72-7.83,5,5.63,1.82-16.78s1.71-4.46,4.27-5.57,2.57-12.3,2.57-12.3S530.72,836.92,524.73,826.88Z" transform="translate(-360.27 -583.03)"/><path class="cls-1" d="M534.15,828l20.5,36.83,6,20.09s-4.27,0-7.7-8.94-.85,7.82-5.13-3.35l-6-5.6s-6-5.56-7.68-17.83l-4.28-1.12S527.31,812.35,534.15,828Z" transform="translate(-360.27 -583.03)"/><path class="cls-1" d="M514.48,778.89s-16.24-2.25-25.63,7.79-30.78,30.14-30.78,30.14l-14.52,19,15.38-11.15-3.19,5.67,9.17-10.15,8.56-1.13,6-10s5.13-3.33,6.82,1.12c0,0,7.7,0,4.28-10l11.11-5.59S524.73,790,514.48,778.89Z" transform="translate(-360.27 -583.03)"/><path class="cls-1" d="M445.16,994.29s7.62-64.44,6.43-77.07-1.21-36.64-1.21-36.64l-2.65-32.31S445.56,830,447,825.72s2.66-15.67,2.66-15.67,1.34-31.13,1.11-38.18,2.46-29.32,2.46-29.32l1.52-18s.47-3.78.15-13.64c-.2-6-1-43.25,2.33-39.2s5,47.6,5,47.6,1.34,4.16.82,12.65-1,16.3-1,16.3l.65,25.72-3.43,39.72-.1,21.19,1.48,45.1s3.85,45,3.21,49.22,5.08,66.29,5.08,66.29S449,997.76,445.16,994.29Z" transform="translate(-360.27 -583.03)"/><path class="cls-1" d="M448.35,996.27s7.06-59,6.72-69.37L448.91,836l2.63-16.13,1.5-50.9s.34-21.65,1.85-23.62,2.84-26.51,2.69-30.29c0,0-.23-23.5,1-18.85s1.54,30.94,1.17,35.66-.5,17-.37,20.74,1.45,12.16.56,16.91-4.69,50.14-3.94,56.69.34,26.32.34,26.32,3.58,61,3.75,65.67,5.7,72.54,6.94,78.12-1.7.66-9,3S448.35,996.27,448.35,996.27Z" transform="translate(-360.27 -583.03)"/><path class="cls-1" d="M535.55,840.47l-1.71-3.14c7.79.72-5.4-10.57-5.4-10.57-5.39-3.46-4.24-3.94-6.05-5.28-4.68-3.53-12.68-10.08-9.87-7-1.64-1.77-8.25-2.7-8.25-2.7s-3.91,1.52-4-1.29a21.21,21.21,0,0,0-1.79-6.5l-3.67-1.68a26.44,26.44,0,0,0-.64-8.76A8.07,8.07,0,0,1,499,796.9c5,8.19,6.37,1.06,1.4-5.74L511,799.05l-.19-5.65,9.8,9.33,10.45,5s-1.71-4.14-8.22-9.41-17-13.16-17-13.16-16.72-3.28-19.28-8.78a46.54,46.54,0,0,0-3.57-6.15c8.06,3.51,16.37,6.51,16.37,6.51l-10.79-7.87-13.82-9.84-7-8.87a28.57,28.57,0,0,1-.79-11.87c.2.78.38,1.57.57,2.31a16,16,0,0,0,1.77,8.41l3.15-10.93a.69.69,0,0,0,0,.13l-.75,5a20.81,20.81,0,0,1,3.39,7.35c.5,1.86.8.33,1-2.16.14.1.26.27.38.29,1.07.09.59-4.52-.12-9.15v-.37l1.49,1.23,1.64,5.1s4.25,19.27,6,16c0-.09.06-.19.1-.29,1.24,2.81,1.41-2.33,1.33-7.2,1,3.45,2.2,6.43,3.06,5.74s-.24-5.65-1.71-11.5l3.26,2.33s3.49,10.16,5.67,11.91-1.43-11.2-1.43-11.2l7.58,6.14s4.57,10.11,6.66,10-2.93-9.26-2.93-9.26l6.56,7.16c5,7.24,11.12,2.19,6.84-.38s-18.5-17.77-18.5-17.77-7.85-13.67-13.34-20c-1.75-2-4.64-3.39-7.75-4.32l-2.76-8.49a1.08,1.08,0,0,0,.72-.61l7,7.11,3.06-3,2.88,7.37,4.33,3.51-.24-7.52a16.25,16.25,0,0,1,3.87,5.44c1.69,3.66,5.95,4.37,5.95,4.37l-5.72-12.86,3.88,5.43c4.95,6.31,8,3.31,8,3.31l-3.49-10.15S498,709,491.05,706.52c-4.78-1.66-17.31-18.09-24.63-28.15,0-1.69-.06-7.45-1.31-11.57,3.22,1.8,8,5.25,8.08,9.54.09,6.41,12.46,1.81,12.46,1.81l-5.06-9.6s6.4,2.47,8.81,3.71a12.08,12.08,0,0,0,5.56,1.11s-9.83-10.74-13.82-11.91c-3-.9-16-21.17-22.32-31.19L456,619.11l-3.8-19.55s-4.1,11.53-3.37,18.06-7.88,25-7.88,25-9.62,11.83-14.86,13.09-10.25,9-10.25,9-4.57,5-7.24,4.19-5.12,4,.62,2.79a57.74,57.74,0,0,0,8.36-2.36l-5.52,8.78s3.18-.19,6.72-4.14,5.61-6,5.61-6l-2.79,11.44s4.21-.24,5.66-4.07a77.9,77.9,0,0,1,5-9.7l2.92,9.24,9.26-1.4a15.45,15.45,0,0,1-.74,3.64s-18.39,18-24.66,20.21l-14,5.5-9.11,11.8s-.37,4.73,3.74,1.69l4.59-5s-7,10.76-3.37,9.63,7.15-7,7.15-7l5.2-2.19-4.37,11.52a12.16,12.16,0,0,0,7.18-6c2.48-4.84,4.55-5.9,4.55-5.9l1.65,1.79-3.41,8.66s3.06-3,5.58-6c.95-1.08,4.26-1.42,8.09-1.42-1.86,3.21-5.27,6.39-5.1,11.62-2.2-.76-2.35,3.53-5.93,3.73,0,0-18.23,6.69-21.26,10.62a12.79,12.79,0,0,0-10-.38c-5.2,2.21-1.4,5.74,1.76,5.57l-6.17,5s-11.63,14.78-3.27,12.44l6.06-7.89s-1.89,6.7,2.73,2.68l6.07-7.89-2.23,12.37s4.14-2.12,4-5.88l3.43-7.72s-.53,16,.9,11.23,3.35-10.54,3.35-10.54.8,8.43,3.37,6.41,1.36-6.67,1.36-6.67l4.6-4,4,9.21s1.89-6.71,3.95-8.72a7,7,0,0,1,4.13-2.11l1.33,2.14-.4,1.6c-6,2.38-8,10.31-8,10.31l.14,2c-20.71,7.43-31.66,15.13-34.94,17.71-5.14,4.07-12.67,15.79-12.67,15.79s-6,8.79-2.35,8.58,5.09-5.93,5.09-5.93l5.62-5-3.77,13.42s6.61-7.93,7-11.71,5.06-5.93,5.06-5.93l-.58,14.14a32.72,32.72,0,0,0,3.53-4.9c2.5-3.91,2.28-10.49,3.87-10.57s5.73-2.21,5.73-2.21l-1.3,7a1.76,1.76,0,0,0-1.1.65c-3.55,4.21-5.77,5.06-5.77,5.06a42.55,42.55,0,0,1-3.36,5.83c2.62-3.4-8.58,3.54-9.16,9.93-.3,3.32-1.61-.87-6.74,3.2,0,0-7.76,8.91-1.48,7.61l-5.5,8.78S357,850.59,361.2,850.34s7.06-9.81,7.06-9.81-1.86,7.63,2.38,8.34,8.09-10.8,8.09-10.8l6-9.76s-4.19,17.19,0,16,1.63-14.2,6.3-16.34,9.79-7.15,9.79-7.15-3.19,15.24-.67,11.33,7.82-18.32,10.45-18.47-2.48,20.85,7.52,4.28c4.93-8.16,6.56-11.33,6.94-12.45l7.48,2.21c.37,1.18.73,2.34,1.13,3.5l-5.37,4s-2.36-.1-2.77,4-3.58,4.43-3.58,4.43a22.19,22.19,0,0,0-4,4.86c1.9-3.53-5.42-1.84-4.75,7.73a36,36,0,0,0-5.24,2.7,25.84,25.84,0,0,0-2.83,5.8,16.53,16.53,0,0,0-2,3.77,24.4,24.4,0,0,0-12.56,5.65l-9.63,14-8.39,8.66s-8.53,19,3.47,6.26l6-10.58,4.69.89-7.38,10.56S370,900,383.82,885.69c4.19-4.34,7.64-11.33,7.64-11.33l5.22-3.29c-2.85,7.36-6.42,17.46-4.72,18.09,2.67,1,6.08-12.07,6.08-12.07s-2.45,10.55.08,12.92S402,877.22,402,877.22l1.3-1.41a25,25,0,0,0,2.59,3.93c0,4,.32,8.28,1.81,8.08,2.82-.38,4.2-16.77,7.49-18.41.09-.06.2-.17.29-.24.58,4.36,1.48,8.87,2.82,11.26-2,9.18-5.35,25.26-3.91,26.21,2,1.33,4.31-15.18,4.31-15.18s-1.64,13.34.27,16.43,4.91-16.58,4.91-16.58l3.81-15.51s-2.71,18.75-.62,18.34,2.27-11.67,4.69-13.67,1.58-.08,1.58-.08-.35,15.17,1.22,9c.87-3.47,1.75-9.54,2.56-14.06l1.79,6.7.93-.44c.42,5.37,1.38,7.57,4.39-6.8,2.39-11.44,3.07-15,3.07-15l5-1.93s1.55,1,2.21-3.06c.81,2.64,1.9,6.11,3.38,10.75,7.6,23.56,2.82-7.22,4.53-7.32s6.14,20.83,8,26.35-1.25-16.86-1.25-16.86,3.64,6.86,6.77,9.51,2.46,22.45,5.23,23.7S480.08,877,480.08,877l4.55,13.86s3.28,16.75,5.95,15.19.94-12.76.94-12.76,2.51,14,5.22,13.83-6-27.89-6-27.89l-4.15-12.48c4.13,1.17,3.15-12.52-.42-18a2.7,2.7,0,0,0-2-1.4c-.29-1.12-.51-1.87-.51-1.87s5.41,4.39,10.22,6,3.12,14.9,7.36,15.58-1.06-15.94-1.06-15.94l6.63,9s4.59,11,8.77,9.85,1.82-8.57,1.82-8.57,3.47,9.21,7.68,9-8.52-18.35-8.52-18.35L510.46,844c2.36.22,3.67-.92,4.16-2.57,2.61,3.93,2,13.44,5.58,14,4.25.71-1.05-15.93-1.05-15.93l6.64,9s4.56,11,8.76,9.84,1.82-8.57,1.82-8.57,3.46,9.22,7.68,9S535.55,840.47,535.55,840.47Z" transform="translate(-360.27 -583.03)"/><path class="cls-1" d="M487.07,667.48l-12.8-7.8-12-20.1-6.69-7.77L452,611.68l-.85,13.39c0,4.46-4.29,10-6,17.85s-12.83,12.3-12.83,12.3l-10.25,6.66,5.12,2.24,8.56-4.44.84,7.8c0,5.59,8.56-2.24,8.56-2.24,4.27-5.56,5.12,1.12,5.12,1.12-.85,4.48,2.56,3.35,2.56,3.35l3.43-11.16c3.15-6.08-5.12-8.92-5.12-8.92l4-6c1.86,5.09,5.37,6,5.37,6l.86,10c2.57,4.44,3.4-2.24,3.4-2.24l4.77,6.19a47.47,47.47,0,0,1,8.06,5l-.86-5.59Z" transform="translate(-360.27 -583.03)"/><path class="cls-1" d="M453.63,690.89s-11,2.28-8.43-3.33c0,0,4.27-7.79-5.13,0,0,0-12,13.41-17.95,13.41,0,0-13.67,2.24-17.1,7.81,0,0,6.84,1.1,10.25-1.11s10.27-1.12,10.27-1.12,2.57,8.93,8.54-3.34l5.13-6.72s6.84,6.72,9.4,0S453.63,690.89,453.63,690.89Z" transform="translate(-360.27 -583.03)"/><path class="cls-1" d="M473.4,692s.76,13.9-3,9.75l-6.74-11.47s-9.67,3.22-5.08,5.84l5.06,7.38,5.52,10.82s3.89,8.12,2.56-2.24,2.58-3.34,2.58-3.34l1.68,5.58,2.58-5.58s5.12,8.93,7.68,4.46c0,0,6,11.17,6,4.47l7.66.56-13.65-10.6S476.81,705.43,473.4,692Z" transform="translate(-360.27 -583.03)"/><path class="cls-1" d="M452.8,716.24s-5.59-2.53-7.6.94a13.19,13.19,0,0,0-1.34,7.76l-4.7,7.78s-4,3.45-3.35,6.91l2.69.87a6.44,6.44,0,0,0-.69,6c1.35,3.45,2.7-.87,2.7-.87l2.67,6.91a15.62,15.62,0,0,0,.68-5.19c0-3.45,7.36,4.32,7.36,4.32s1.36-1-2.33-5.65,5.69,1.33,5.69,1.33-.72-6.93-3.09-6.67,2.42-2.83.41-7.13l1.33-8.65Z" transform="translate(-360.27 -583.03)"/><path class="cls-1" d="M472.54,791.38a10.69,10.69,0,0,1-10.26-8.93s-2.56-8.92-3.41-3.36l-4.27-3.33s-.49-14.81,5.31-6.29-1-2.65-1-2.65l7.69,5.59-.86-8.95,6.84,5.6,6.85,7.83,11.11,5.56s12,3.35,14.52,6.7-1.69,3.33-1.69,3.33l-6.84-2.24s-6-4.44-6-1.09l-1.11,10.65s-4.87-4-6.6-9.56c0,0-6-12.25-6-5.56s-4.27,0-4.27,0Z" transform="translate(-360.27 -583.03)"/><path class="cls-1" d="M465.7,723.3s-.26,8.76,5.17,12.34,5.08-2.3,5.08-2.3l3.44,5.58L483.65,749s1.07,3.5,1-3.84l6.84,5.49,4.18,6.15-.87-8.92,6.85,4.46s-11-23-19.19-24.34c0,0-2.3,9.8-7.79,2.57s.47-2.77.47-2.77v-3.36l-3.41,1.12Z" transform="translate(-360.27 -583.03)"/><path class="cls-1" d="M433.23,765.71s-9.4-5.59-15.38-2.25l-20.51,11.18s-9.41,4.45-12.82,7.81-5.13,3.35,8.53-1.12l9.84,1.72,3.85-4,1.88,8.33,5-10.53,5.13,1.1s3.41-1.1,2.55-6.71Z" transform="translate(-360.27 -583.03)"/><polygon class="cls-1" points="66.97 149.19 69.55 150.31 73.81 139.16 66.97 149.19"/><path class="cls-1" d="M417.85,735.56s-18,4.48-21.37,10.05,5.71,2.27,5.71,2.27l3.69,4.43h3.42v-6.7a13.24,13.24,0,0,1,8.55-3.33l2.56,4.45,3.42-5.57S435.05,725.65,417.85,735.56Z" transform="translate(-360.27 -583.03)"/><path class="cls-1" d="M493.91,810.35l2.58,4.47s8.53,0,11.1,1.1,12,10.07,12,10.07l7.7,10s15.4,13.4,5.12,7.8a113.42,113.42,0,0,1-18-12.27l1.71,7.8L511,837.14l-4.27,3.34s-2.19-8-7.7-11.15-2.54-1.12-2.54-1.12l-16.25-3.33s13.21,6.41,17.3,10.44l16.88,20.79s4.28,12.27-8.55-4.45l-7.69-3.36.85,5.57s-5.12-11.15-12.82-10c0,0-15.38-10-17.93-14.5l.85-7.81s.9-5.42-6-4.95c0,0,9.38-4.66,13.23,1.81l11.68,1.49s3.72-1.53.71-2.84c0,0-5.13-13.36-12-13.36s5.13,0,11.11,3.33Z" transform="translate(-360.27 -583.03)"/><path class="cls-1" d="M445.2,804.77s-16.24,19-17.09,24.56l-7.7,6.7,6,5.57,11.11-12.27s-4.27-11.17.86-13.41S448.61,820.41,445.2,804.77Z" transform="translate(-360.27 -583.03)"/><path class="cls-1" d="M411.86,840.48s14.53-1.12,17.1,3.35-6.84,1.12-12.83,4.47-6,10.06-6,13.4,1.29,14-1.93,5.86a5.22,5.22,0,0,0-4.9,3.06c-1.71,3.35-3.29-4.22-4.28,1.12,0,0,.26-15.34,5.67-19.4Z" transform="translate(-360.27 -583.03)"/><path class="cls-1" d="M453.73,824.88s-14.52,10-16.23,15.6c0,0-.86,8.95-3.42,8.95S425.33,846.32,422,854l-2.47,28.9s3,1,4.28-4.46,7.8-6.15,7.8-6.15l2.45,3.91,1.72-7.83,5,5.63,1.82-16.78s1.71-4.46,4.27-5.57,2.57-12.3,2.57-12.3S459.72,834.92,453.73,824.88Z" transform="translate(-360.27 -583.03)"/><path class="cls-1" d="M463.15,826l20.5,36.83,6,20.09s-4.27,0-7.7-8.94-.85,7.82-5.13-3.35l-6-5.6s-6-5.56-7.68-17.83l-4.28-1.12S456.31,810.35,463.15,826Z" transform="translate(-360.27 -583.03)"/><path class="cls-1" d="M443.48,776.89s-16.24-2.25-25.63,7.79-30.78,30.14-30.78,30.14l-14.52,19,15.38-11.15-3.19,5.67,9.17-10.15,8.56-1.13,6-10s5.13-3.33,6.82,1.12c0,0,7.7,0,4.28-10l11.11-5.59S453.73,788,443.48,776.89Z" transform="translate(-360.27 -583.03)"/><path class="cls-1" d="M1019,1060.37s5.48-62.56,4.62-74.83-.87-35.57-.87-35.57l-1.9-31.36s-1.56-17.7-.53-21.89,1.91-15.21,1.91-15.21,1-30.22.79-37.07,1.77-28.46,1.77-28.46l1.09-17.44s.34-3.68.11-13.25c-.14-5.82-.69-42,1.68-38s3.62,46.21,3.62,46.21,1,4,.59,12.28-.76,15.82-.76,15.82l.47,25-2.46,38.55-.07,20.57,1.06,43.78s2.76,43.64,2.3,47.78,3.66,64.36,3.66,64.36S1021.71,1063.73,1019,1060.37Z" transform="translate(-360.27 -583.03)"/><path class="cls-1" d="M1021.25,1062.29s5.07-57.32,4.83-67.34l-4.43-88.29,1.89-15.67,1.08-49.41s.24-21,1.33-22.93,2-25.74,1.93-29.41c0,0-.16-22.81.7-18.29s1.11,30,.84,34.62-.36,16.49-.27,20.13,1,11.81.4,16.42-3.36,48.67-2.82,55,.24,25.55.24,25.55,2.57,59.2,2.69,63.75,4.1,70.42,5,75.84-1.22.64-6.46,2.86A4.88,4.88,0,0,1,1021.25,1062.29Z" transform="translate(-360.27 -583.03)"/><path class="cls-1" d="M1083.88,911l-1.23-3c5.6.7-3.88-10.26-3.88-10.26-3.86-3.35-3-3.83-4.34-5.12-3.37-3.43-9.11-9.8-7.09-6.81-1.17-1.72-5.92-2.62-5.92-2.62s-2.81,1.47-2.88-1.25a26.26,26.26,0,0,0-1.28-6.31l-2.64-1.64a34.44,34.44,0,0,0-.46-8.5,6.11,6.11,0,0,1,3.49,3.26c3.6,8,4.58,1,1-5.57l7.57,7.66-.14-5.49,7,9.06,7.51,4.91s-1.24-4-5.91-9.14-12.24-12.77-12.24-12.77-12-3.19-13.84-8.53a51.15,51.15,0,0,0-2.57-6c5.79,3.41,11.76,6.32,11.76,6.32l-7.75-7.64-9.93-9.55-5-8.61a37.48,37.48,0,0,1-.57-11.53c.15.77.27,1.53.41,2.25a20,20,0,0,0,1.27,8.16l2.26-10.61s0,.08,0,.13l-.54,4.86a23.81,23.81,0,0,1,2.44,7.14c.35,1.8.57.31.68-2.1.11.09.19.26.28.28.76.09.42-4.39-.09-8.89v-.35l1.07,1.2,1.18,4.94s3.05,18.71,4.28,15.51c0-.08,0-.18.07-.27.89,2.72,1-2.27,1-7,.75,3.35,1.59,6.25,2.2,5.57s-.17-5.48-1.22-11.16l2.34,2.27s2.51,9.86,4.07,11.56-1-10.87-1-10.87l5.45,6s3.28,9.82,4.78,9.71-2.11-9-2.11-9l4.71,7c3.57,7,8,2.13,4.92-.36s-13.29-17.26-13.29-17.26-5.64-13.27-9.58-19.37a11.48,11.48,0,0,0-5.57-4.19l-2-8.24c.2-.05.37-.27.51-.6l5,6.91,2.2-2.91,2.07,7.16,3.11,3.4-.17-7.3a16.39,16.39,0,0,1,2.77,5.28,6.43,6.43,0,0,0,4.27,4.24l-4.1-12.48,2.78,5.27c3.56,6.13,5.76,3.22,5.76,3.22l-2.5-9.86s-7.39-7.66-12.37-10c-3.43-1.61-12.43-17.57-17.69-27.33a59.18,59.18,0,0,0-.94-11.24c2.32,1.76,5.77,5.1,5.81,9.27.06,6.22,8.94,1.75,8.94,1.75l-3.64-9.32s4.6,2.4,6.34,3.61a6.74,6.74,0,0,0,4,1.08s-7.06-10.44-9.92-11.57c-2.17-.87-11.52-20.55-16-30.27l-2-10.84-2.73-19s-2.94,11.18-2.42,17.53S1016,719,1016,719s-6.91,11.49-10.67,12.7-7.36,8.77-7.36,8.77-3.29,4.83-5.2,4.07-3.68,3.92.45,2.71a33.8,33.8,0,0,0,6-2.29l-4,8.53s2.28-.19,4.82-4,4-5.8,4-5.8l-2,11.1a5,5,0,0,0,4.07-3.95,88.56,88.56,0,0,1,3.58-9.42l2.1,9,6.64-1.37a19.11,19.11,0,0,1-.53,3.54s-13.21,17.45-17.7,19.62l-10.09,5.34L983.58,789s-.27,4.6,2.68,1.64l3.3-4.84s-5.06,10.45-2.42,9.35,5.13-6.79,5.13-6.79l3.74-2.12-3.14,11.18s3.38-1.16,5.16-5.86,3.26-5.73,3.26-5.73l1.19,1.73L1000,796s2.2-2.89,4-5.79c.68-1,3.06-1.38,5.81-1.38-1.34,3.11-3.79,6.21-3.66,11.28-1.59-.74-1.69,3.42-4.26,3.62,0,0-13.1,6.5-15.27,10.31a7.08,7.08,0,0,0-7.21-.37c-3.74,2.14-1,5.57,1.26,5.41l-4.43,4.9s-8.35,14.34-2.35,12.07l4.36-7.67s-1.36,6.51,2,2.61l4.36-7.66-1.6,12a7.2,7.2,0,0,0,2.89-5.71l2.47-7.49S988,837.64,989,833s2.41-10.23,2.41-10.23.57,8.18,2.42,6.22,1-6.48,1-6.48l3.3-3.9,2.88,8.93s1.35-6.51,2.83-8.46a4.59,4.59,0,0,1,3-2.05l1,2.08-.28,1.55c-4.29,2.31-5.74,10-5.74,10l.1,2c-14.88,7.21-22.74,14.69-25.1,17.2-3.68,3.94-9.09,15.32-9.09,15.32s-4.33,8.53-1.69,8.33,3.65-5.75,3.65-5.75l4-4.89-2.71,13s4.75-7.7,5-11.37,3.64-5.76,3.64-5.76l-.41,13.73a32.94,32.94,0,0,0,2.53-4.76c1.79-3.8,1.63-10.18,2.78-10.26s4.11-2.14,4.11-2.14l-.93,6.8a1.19,1.19,0,0,0-.79.63c-2.55,4.08-4.14,4.9-4.14,4.9a46.75,46.75,0,0,1-2.42,5.66c1.89-3.29-6.16,3.45-6.58,9.65-.21,3.22-1.15-.84-4.84,3.11,0,0-5.57,8.64-1.06,7.38l-4,8.52s-8.26,18.92-5.23,18.67,5.07-9.52,5.07-9.52-1.33,7.41,1.71,8.1,5.81-10.49,5.81-10.49l4.32-9.47s-3,16.68,0,15.52,1.17-13.79,4.52-15.87,7-6.93,7-6.93-2.28,14.79-.48,11,5.62-17.78,7.5-17.93-1.77,20.24,5.41,4.16c3.54-7.93,4.71-11,5-12.09l5.37,2.14c.27,1.15.53,2.28.82,3.4l-3.86,3.91s-1.69-.1-2,3.93-2.57,4.3-2.57,4.3a21.22,21.22,0,0,0-2.91,4.72c1.37-3.43-3.88-1.79-3.4,7.5a24,24,0,0,0-3.76,2.62,29.35,29.35,0,0,0-2,5.64,18.33,18.33,0,0,0-1.41,3.66,15.71,15.71,0,0,0-9,5.48L972.84,938l-6,8.41s-6.12,18.44,2.49,6.08l4.34-10.27,3.37.87-5.3,10.24s-6.72,15.45,3.19,1.59a55.53,55.53,0,0,0,5.49-11l3.75-3.2c-2,7.15-4.61,17-3.39,17.56,1.92,1,4.37-11.71,4.37-11.71s-1.76,10.24.06,12.54S988,946.71,988,946.71l.93-1.36a26.63,26.63,0,0,0,1.86,3.81c0,3.92.23,8,1.3,7.84,2-.37,3-16.28,5.38-17.87.07-.06.14-.17.21-.23.41,4.23,1.06,8.61,2,10.94-1.46,8.91-3.85,24.51-2.82,25.44,1.44,1.29,3.1-14.74,3.1-14.74s-1.18,13,.2,16,3.52-16.1,3.52-16.1l2.74-15.06s-2,18.21-.45,17.81,1.63-11.33,3.37-13.27,1.13-.08,1.13-.08-.25,14.73.88,8.77c.63-3.37,1.26-9.26,1.84-13.66l1.29,6.51.66-.43c.31,5.22,1,7.35,3.15-6.6,1.72-11.1,2.21-14.56,2.21-14.56l3.59-1.87s1.11,1,1.58-3c.58,2.56,1.36,5.93,2.43,10.44,5.46,22.87,2-7,3.25-7.11s4.41,20.22,5.77,25.58-.9-16.37-.9-16.37,2.61,6.67,4.87,9.24,1.76,21.79,3.75,23-.82-23.24-.82-23.24l3.27,13.46s2.35,16.25,4.27,14.74.68-12.38.68-12.38,1.8,13.57,3.75,13.42-4.33-27.07-4.33-27.07l-3-12.11c3,1.13,2.26-12.16-.3-17.45-.45-.92-.94-1.3-1.44-1.36-.21-1.09-.37-1.81-.37-1.81s3.89,4.26,7.34,5.82,2.25,14.47,5.29,15.13-.76-15.47-.76-15.47l4.76,8.77s3.29,10.71,6.3,9.55,1.3-8.31,1.3-8.31,2.49,8.94,5.52,8.71-6.12-17.81-6.12-17.81l-4.36-7.89c1.69.22,2.64-.88,3-2.49,1.87,3.81,1.43,13,4,13.61,3.06.69-.75-15.46-.75-15.46l4.77,8.77s3.28,10.72,6.29,9.55,1.31-8.31,1.31-8.31,2.49,8.94,5.51,8.71S1083.88,911,1083.88,911Z" transform="translate(-360.27 -583.03)"/><path class="cls-1" d="M1049.06,743.11l-9.19-7.58L1031.26,716l-4.81-7.54-2.55-19.55-.61,13c0,4.34-3.08,9.74-4.3,17.34s-9.21,11.93-9.21,11.93l-7.36,6.47,3.67,2.18,6.15-4.32.6,7.58c0,5.42,6.15-2.18,6.15-2.18,3.07-5.4,3.68,1.09,3.68,1.09-.61,4.35,1.84,3.25,1.84,3.25l2.46-10.83c2.26-5.91-3.68-8.66-3.68-8.66l2.89-5.87c1.33,5,3.85,5.87,3.85,5.87l.62,9.75c1.85,4.32,2.45-2.18,2.45-2.18l3.42,6a34.38,34.38,0,0,1,5.79,4.83l-.61-5.43Z" transform="translate(-360.27 -583.03)"/><path class="cls-1" d="M1025.05,765.83s-7.9,2.21-6.06-3.23c0,0,3.07-7.56-3.68,0,0,0-8.59,13-12.89,13,0,0-9.82,2.17-12.29,7.58,0,0,4.92,1.07,7.37-1.08s7.37-1.08,7.37-1.08,1.85,8.66,6.13-3.25l3.69-6.52s4.91,6.52,6.75,0S1025.05,765.83,1025.05,765.83Z" transform="translate(-360.27 -583.03)"/><path class="cls-1" d="M1039.24,767s.55,13.49-2.17,9.46l-4.85-11.13s-6.94,3.12-3.64,5.67l3.63,7.16,4,10.51s2.79,7.88,1.83-2.18,1.86-3.24,1.86-3.24l1.21,5.42,1.85-5.42s3.68,8.67,5.51,4.33c0,0,4.31,10.84,4.31,4.34l5.5.54-9.81-10.29S1041.7,780,1039.24,767Z" transform="translate(-360.27 -583.03)"/><path class="cls-1" d="M1024.45,790.44s-4-2.45-5.46.92a16.88,16.88,0,0,0-1,7.53l-3.38,7.55s-2.88,3.35-2.4,6.71l1.93.84a8,8,0,0,0-.49,5.86c1,3.36,1.93-.84,1.93-.84l1.92,6.71a20,20,0,0,0,.49-5c0-3.35,5.29,4.19,5.29,4.19s1-.93-1.68-5.48,4.09,1.29,4.09,1.29-.52-6.72-2.22-6.47,1.74-2.75.29-6.93l1-8.39Z" transform="translate(-360.27 -583.03)"/><path class="cls-1" d="M1038.63,863.38s-6.13,0-7.37-8.66c0,0-1.84-8.66-2.45-3.26l-3.07-3.23s-.35-14.38,3.81-6.11-.74-2.58-.74-2.58l5.52,5.42-.61-8.68,4.91,5.44,4.91,7.6,8,5.4s8.6,3.24,10.43,6.5-1.21,3.24-1.21,3.24l-4.91-2.18s-4.31-4.32-4.31-1.06l-.79,10.34a22.76,22.76,0,0,1-4.74-9.28s-4.29-11.9-4.29-5.4-3.07,0-3.07,0Z" transform="translate(-360.27 -583.03)"/><path class="cls-1" d="M1033.72,797.3s-.19,8.5,3.7,12,3.66-2.23,3.66-2.23l2.46,5.42,3.07,9.75s.76,3.4.69-3.72l4.91,5.33,3,6-.62-8.67,4.91,4.34s-7.9-22.37-13.78-23.63c0,0-1.65,9.51-5.59,2.5s.34-2.7.34-2.7v-3.26l-2.46,1.09Z" transform="translate(-360.27 -583.03)"/><path class="cls-1" d="M1010.39,838.46s-6.74-5.42-11-2.18l-14.72,10.86s-6.76,4.32-9.21,7.58-3.68,3.24,6.13-1.09l7.06,1.67,2.77-3.84,1.35,8.08,3.56-10.22,3.68,1.06s2.46-1.06,1.84-6.5Z" transform="translate(-360.27 -583.03)"/><polygon class="cls-1" points="645.82 222.93 647.67 224.01 650.73 213.18 645.82 222.93"/><path class="cls-1" d="M999.34,809.2S986.45,813.54,984,819s4.1,2.2,4.1,2.2l2.65,4.31h2.46V819s2.45-3.23,6.13-3.23l1.85,4.32,2.46-5.41S1011.7,799.58,999.34,809.2Z" transform="translate(-360.27 -583.03)"/><path class="cls-1" d="M1054,881.8l1.85,4.34s6.12,0,8,1.07,8.59,9.77,8.59,9.77l5.53,9.75s11.06,13,3.67,7.57a86.26,86.26,0,0,1-12.89-11.91l1.23,7.57-3.68-2.16-3.07,3.25s-1.57-7.75-5.53-10.83-1.82-1.08-1.82-1.08l-11.67-3.23s9.48,6.21,12.42,10.13l12.12,20.18s3.08,11.92-6.13-4.31l-5.53-3.27.61,5.41s-3.67-10.83-9.21-9.75c0,0-11-9.74-12.87-14.08l.61-7.57s.65-5.27-4.29-4.81c0,0,6.74-4.53,9.5,1.76l8.39,1.44s2.67-1.48.51-2.76c0,0-3.68-13-8.59-13s3.68,0,8,3.23Z" transform="translate(-360.27 -583.03)"/><path class="cls-1" d="M1019,876.38s-11.66,18.42-12.27,23.84l-5.53,6.51,4.29,5.41,8-11.92s-3.07-10.84.62-13S1021.44,891.57,1019,876.38Z" transform="translate(-360.27 -583.03)"/><path class="cls-1" d="M995.05,911.05s10.43-1.09,12.28,3.25-4.91,1.08-9.22,4.34-4.29,9.77-4.29,13,.93,13.59-1.39,5.7c0,0-2.3-.29-3.52,3s-2.36-4.09-3.08,1.09c0,0,.19-14.9,4.08-18.84Z" transform="translate(-360.27 -583.03)"/><path class="cls-1" d="M1025.12,895.91s-10.43,9.74-11.66,15.14c0,0-.62,8.69-2.46,8.69s-6.28-3-8.66,4.44l-1.77,28.06s2.17,1,3.08-4.33a6.91,6.91,0,0,1,5.6-6l1.75,3.8,1.24-7.59,3.6,5.46,1.31-16.29s1.22-4.33,3.06-5.4,1.85-11.95,1.85-11.95S1029.42,905.65,1025.12,895.91Z" transform="translate(-360.27 -583.03)"/><path class="cls-1" d="M1031.88,897l14.73,35.75,4.3,19.51s-3.07,0-5.53-8.68-.61,7.59-3.68-3.25l-4.3-5.43s-4.3-5.41-5.52-17.32l-3.07-1.08S1027,881.8,1031.88,897Z" transform="translate(-360.27 -583.03)"/><path class="cls-1" d="M1017.75,849.32s-11.66-2.18-18.41,7.56-22.1,29.26-22.1,29.26l-10.43,18.42,11.05-10.83-2.29,5.51,6.59-9.86,6.14-1.1,4.3-9.74s3.68-3.23,4.9,1.1c0,0,5.53,0,3.07-9.76l8-5.42S1025.12,860.14,1017.75,849.32Z" transform="translate(-360.27 -583.03)"/></svg>